<?xml version="1.0" encoding="UTF-8"?>
<!DOCTYPE svg PUBLIC "-//W3C//DTD SVG 1.1//EN" "http://www.w3.org/Graphics/SVG/1.1/DTD/svg11.dtd">
<svg xmlns="http://www.w3.org/2000/svg" width="13" height="14" viewBox="0 0 13 14" fill="none">
  <g clip-path="url(#clip0_1227_9323)">
    <path d="M11.3281 7C11.3281 5.6532 10.7931 4.36156 9.84078 3.40922C8.88844 2.45689 7.5968 1.92188 6.25 1.92188C4.9032 1.92188 3.61156 2.45689 2.65922 3.40922C1.70689 4.36156 1.17188 5.6532 1.17188 7C1.17188 8.3468 1.70689 9.63844 2.65922 10.5908C3.61156 11.5431 4.9032 12.0781 6.25 12.0781C7.5968 12.0781 8.88844 11.5431 9.84078 10.5908C10.7931 9.63844 11.3281 8.3468 11.3281 7ZM0 7C0 5.3424 0.65848 3.75269 1.83058 2.58058C3.00269 1.40848 4.5924 0.75 6.25 0.75C7.9076 0.75 9.49732 1.40848 10.6694 2.58058C11.8415 3.75269 12.5 5.3424 12.5 7C12.5 8.6576 11.8415 10.2473 10.6694 11.4194C9.49732 12.5915 7.9076 13.25 6.25 13.25C4.5924 13.25 3.00269 12.5915 1.83058 11.4194C0.65848 10.2473 0 8.6576 0 7Z" fill="#374151"/>
  </g>
  <defs>
    <clipPath id="clip0_1227_9323">
      <rect width="12.5" height="12.5" fill="white" transform="translate(0 0.75)"/>
    </clipPath>
  </defs>
</svg>
