<svg version="1.2" xmlns="http://www.w3.org/2000/svg" viewBox="0 0 24 24" width="24" height="24">
	<path id="Layer" fill-rule="evenodd" class="s0" d="m0 6c0-1.7 1.3-3 3-3h18c1.7 0 3 1.3 3 3v12c0 1.7-1.3 3-3 3h-18c-1.7 0-3-1.3-3-3zm1.5 0v1.9l0.1 0.1q0.1 0.1 0.3 0.2 0.4 0.3 1.1 0.9c0.9 0.7 2.1 1.6 3.4 2.5 1.3 1 2.6 1.9 3.7 2.6q0.8 0.5 1.3 0.8 0.3 0.2 0.5 0.2 0.1 0 0.1 0 0 0 0.1 0 0.2 0 0.5-0.2 0.5-0.3 1.3-0.8c1.1-0.7 2.4-1.6 3.7-2.6 1.3-0.9 2.5-1.8 3.4-2.5q0.7-0.6 1.1-0.9 0.2-0.1 0.3-0.2l0.1-0.1v-1.9c0-0.8-0.7-1.5-1.5-1.5h-18c-0.8 0-1.5 0.7-1.5 1.5zm0 3.8v8.2c0 0.8 0.7 1.5 1.5 1.5h18c0.8 0 1.5-0.7 1.5-1.5v-8.2q-0.3 0.2-0.6 0.5c-0.9 0.7-2.1 1.6-3.4 2.6-1.3 0.9-2.6 1.8-3.7 2.6q-0.9 0.5-1.6 0.8-0.3 0.2-0.6 0.3c-0.2 0.1-0.4 0.1-0.6 0.1-0.2 0-0.4 0-0.6-0.1q-0.3-0.1-0.6-0.3-0.7-0.3-1.6-0.8c-1.1-0.8-2.4-1.7-3.7-2.6-1.3-1-2.5-1.9-3.4-2.6q-0.3-0.3-0.6-0.5z" fill="#4B5563"/>
</svg>