<svg width="17" height="16" viewBox="0 0 17 16" fill="none" xmlns="http://www.w3.org/2000/svg">
<path d="M8.66699 16C13.0857 16 16.667 12.4187 16.667 8C16.667 3.58125 13.0857 0 8.66699 0C4.24824 0 0.666992 3.58125 0.666992 8C0.666992 12.4187 4.24824 16 8.66699 16ZM6.13574 5.46875C6.42949 5.175 6.90449 5.175 7.19512 5.46875L8.66387 6.9375L10.1326 5.46875C10.4264 5.175 10.9014 5.175 11.192 5.46875C11.4826 5.7625 11.4857 6.2375 11.192 6.52812L9.72324 7.99687L11.192 9.46562C11.4857 9.75937 11.4857 10.2344 11.192 10.525C10.8982 10.8156 10.4232 10.8187 10.1326 10.525L8.66387 9.05625L7.19512 10.525C6.90137 10.8187 6.42637 10.8187 6.13574 10.525C5.84512 10.2312 5.84199 9.75625 6.13574 9.46562L7.60449 7.99687L6.13574 6.52812C5.84199 6.23438 5.84199 5.75938 6.13574 5.46875Z" fill="#BE123C"/>
</svg>