<svg width="17" height="16" viewBox="0 0 17 16" fill="none" xmlns="http://www.w3.org/2000/svg">
<path d="M8.33301 16C12.7518 16 16.333 12.4187 16.333 8C16.333 3.58125 12.7518 0 8.33301 0C3.91426 0 0.333008 3.58125 0.333008 8C0.333008 12.4187 3.91426 16 8.33301 16ZM11.8643 6.53125L7.86426 10.5312C7.57051 10.825 7.09551 10.825 6.80488 10.5312L4.80488 8.53125C4.51113 8.2375 4.51113 7.7625 4.80488 7.47188C5.09863 7.18125 5.57363 7.17813 5.86426 7.47188L7.33301 8.94063L10.8018 5.46875C11.0955 5.175 11.5705 5.175 11.8611 5.46875C12.1518 5.7625 12.1549 6.2375 11.8611 6.52812L11.8643 6.53125Z" fill="#15803D"/>
</svg>