<svg version="1.2" xmlns="http://www.w3.org/2000/svg" viewBox="0 0 30 24" width="30" height="24">
	<path id="Layer" fill-rule="evenodd" class="s0" d="m11.5 1c3 0 5.6 1.8 6.8 4.4q1.2-0.9 2.7-0.9c2.5 0 4.5 2 4.5 4.5q0 0.6-0.1 1.2c2.6 0.6 4.6 3 4.6 5.8v1c0 3.3-2.7 6-6 6h-18c-3.3 0-6-2.7-6-6v-1c0-2.7 1.8-5 4.2-5.7q-0.2-0.9-0.2-1.8c0-4.1 3.4-7.5 7.5-7.5zm-6 7.5q0 1.1 0.3 2c0 0 0.1 0.3 0 0.5 0 0.2-0.3 0.5-0.3 0.5-2.2 0.3-4 2.2-4 4.5v1c0 2.5 2 4.5 4.5 4.5h18c2.5 0 4.5-2 4.5-4.5v-1c0-2.3-1.7-4.2-4-4.5 0 0-0.5 0-0.7-0.5-0.1-0.5 0-1 0-1q0.2-0.5 0.2-1c0-1.7-1.3-3-3-3-0.9 0-1.6 0.4-2.2 0.9 0 0-0.3 0.6-0.8 0.6-0.5 0-0.7-0.6-0.7-0.6-0.7-2.5-3-4.4-5.8-4.4-3.3 0-6 2.7-6 6z" fill="#4B5563"/>
</svg>