<svg width="25" height="25" viewBox="0 0 25 25" fill="none" xmlns="http://www.w3.org/2000/svg">
<path fill-rule="evenodd" clip-rule="evenodd" d="M5 3C3.9 3 3 3.9 3 5V9C3 10.1 3.9 11 5 11H9C10.1 11 11 10.1 11 9V5C11 3.9 10.1 3 9 3H5ZM5 14C3.9 14 3 14.9 3 16V20C3 21.1 3.9 22 5 22H9C10.1 22 11 21.1 11 20V16C11 14.9 10.1 14 9 14H5ZM14 9C14 10.1 14.9 11 16 11H20C21.1 11 22 10.1 22 9V5C22 3.9 21.1 3 20 3H16C14.9 3 14 3.9 14 5V9ZM16 14C14.9 14 14 14.9 14 16V20C14 21.1 14.9 22 16 22H20C21.1 22 22 21.1 22 20V16C22 14.9 21.1 14 20 14H16Z" fill="#111827"/>
</svg>