<svg version="1.2" xmlns="http://www.w3.org/2000/svg" viewBox="0 0 24 24" width="24" height="24">
	<path id="Layer" fill-rule="evenodd" class="s0" d="m8.5 2.5c1.1 0 2 0.9 2 2v4c0 1.1-0.9 2-2 2h-4c-1.1 0-2-0.9-2-2v-4c0-1.1 0.9-2 2-2zm-4 1.5c-0.3 0-0.5 0.2-0.5 0.5v4c0 0.3 0.2 0.5 0.5 0.5h4c0.3 0 0.5-0.2 0.5-0.5v-4c0-0.3-0.2-0.5-0.5-0.5zm4 9.5c1.1 0 2 0.9 2 2v4c0 1.1-0.9 2-2 2h-4c-1.1 0-2-0.9-2-2v-4c0-1.1 0.9-2 2-2zm-4 1.5c-0.3 0-0.5 0.2-0.5 0.5v4c0 0.3 0.2 0.5 0.5 0.5h4c0.3 0 0.5-0.2 0.5-0.5v-4c0-0.3-0.2-0.5-0.5-0.5zm9-10.5c0-1.1 0.9-2 2-2h4c1.1 0 2 0.9 2 2v4c0 1.1-0.9 2-2 2h-4c-1.1 0-2-0.9-2-2zm2-0.5c-0.3 0-0.5 0.2-0.5 0.5v4c0 0.3 0.2 0.5 0.5 0.5h4c0.3 0 0.5-0.2 0.5-0.5v-4c0-0.3-0.2-0.5-0.5-0.5zm4 9.5c1.1 0 2 0.9 2 2v4c0 1.1-0.9 2-2 2h-4c-1.1 0-2-0.9-2-2v-4c0-1.1 0.9-2 2-2zm-4 1.5c-0.3 0-0.5 0.2-0.5 0.5v4c0 0.3 0.2 0.5 0.5 0.5h4c0.3 0 0.5-0.2 0.5-0.5v-4c0-0.3-0.2-0.5-0.5-0.5z" fill="#4B5563"/>
</svg>