<svg version="1.2" xmlns="http://www.w3.org/2000/svg" viewBox="0 0 24 24" width="24" height="24">
	<path id="Layer" fill-rule="evenodd" class="s0" d="m17.4 4.8l1.9-0.7c0.9-0.4 2-0.1 2.5 0.8l1.2 2.2c0.5 0.9 0.3 2-0.4 2.6l-1.6 1.3q0 0.5 0 1 0 0.5-0.1 1.1l1.6 1.2c0.8 0.6 1 1.7 0.5 2.6l-1.2 2.2c-0.5 0.9-1.6 1.2-2.5 0.8l-1.9-0.7q-0.8 0.6-1.8 1l-0.3 2.1c-0.2 1-1 1.7-2 1.7h-2.6c-1 0-1.8-0.7-2-1.7l-0.3-2.1q-1-0.4-1.8-1l-1.9 0.8c-0.9 0.3-2 0-2.4-0.9l-1.3-2.2c-0.5-0.9-0.3-2 0.5-2.6l1.6-1.2q-0.1-0.6-0.1-1.1 0-0.5 0.1-1.1l-1.6-1.2c-0.8-0.6-1-1.7-0.5-2.6l1.2-2.2c0.5-0.9 1.6-1.2 2.5-0.8l1.9 0.7q0.8-0.6 1.8-1l0.3-2.1c0.2-1 1-1.7 2-1.7h2.6c1 0 1.8 0.7 2 1.7l0.3 2.1q1 0.4 1.8 1zm-3.1 0l-0.5-2.9c0-0.2-0.2-0.4-0.5-0.4h-2.6c-0.3 0-0.5 0.2-0.5 0.4l-0.5 2.9-0.7 0.3q-0.8 0.4-1.5 0.9l-0.7 0.5-2.6-1.1c-0.3 0-0.5 0-0.7 0.3l-1.2 2.1c-0.2 0.3-0.1 0.5 0.1 0.7l2.3 1.8-0.1 0.8q-0.1 0.4-0.1 0.9 0 0.5 0.1 0.9l0.1 0.8-2.3 1.8c-0.2 0.2-0.3 0.4-0.1 0.7l1.3 2.2c0.1 0.2 0.3 0.3 0.6 0.2l2.7-1.1 0.6 0.5q0.7 0.5 1.5 0.9l0.7 0.3 0.5 2.9c0 0.2 0.2 0.4 0.5 0.4h2.6c0.3 0 0.5-0.2 0.5-0.4l0.5-2.9 0.7-0.3q0.8-0.4 1.5-0.9l0.7-0.5 2.6 1.1c0.3 0 0.5 0 0.7-0.3l1.2-2.1c0.2-0.3 0.1-0.5-0.1-0.7l-2.3-1.8 0.1-0.8q0.1-0.4 0.1-0.9 0-0.4 0-0.8l-0.1-0.8 2.2-1.9c0.2-0.1 0.3-0.4 0.2-0.6l-1.3-2.2c-0.2-0.3-0.4-0.3-0.7-0.3l-2.6 1.1-0.7-0.5q-0.7-0.5-1.5-0.9zm2.2 7.2c0 2.5-2 4.5-4.5 4.5-2.4 0-4.5-2-4.5-4.5 0-2.5 2.1-4.5 4.5-4.5 2.5 0 4.5 2 4.5 4.5zm-4.5-3c-1.6 0-3 1.4-3 3 0 1.7 1.4 3 3 3 1.7 0 3-1.3 3-3 0-1.6-1.3-3-3-3z" fill="#111827"/>
</svg>