<?xml version="1.0" encoding="UTF-8"?>
<!DOCTYPE svg PUBLIC "-//W3C//DTD SVG 1.1//EN" "http://www.w3.org/Graphics/SVG/1.1/DTD/svg11.dtd">
<svg version="1.1" id="Layer_1" xmlns="http://www.w3.org/2000/svg" xmlns:xlink="http://www.w3.org/1999/xlink" x="0px" y="0px" width="16px" height="16px" viewBox="0 0 16 16" enable-background="new 0 0 16 16" xml:space="preserve">
  <g id="main">
    <g id="icon">
      <path d="M0.7219,4.093L0.3461,4.346L0.09277,4.722L0,5.182L0,10.8L0.09277,11.26L0.3461,11.64L0.7219,11.9L1.182,12L4.5,12L4.5,11L6.025,11L6.029,10.94L6.112,10.39L6.248,9.866L6.433,9.361L6.665,8.88L6.941,8.427L7.257,8.004L7.261,8L4.3,8L3.844,7.952L3.416,7.815L3.026,7.6L2.684,7.316L2.4,6.974L2.185,6.584L2.048,6.156L2,5.7L2,4L1.182,4zM13,5.7L12.95,6.156L12.94,6.196L13.48,6.368L14.07,6.641L14.63,6.98L15,7.272L15,5.182L14.91,4.722L14.65,4.346L14.28,4.093L13.82,4L13,4zM2.391,9L2.601,9.038L2.78,9.143L2.913,9.3L2.983,9.496L3,9.4L3,9.593L2.983,9.5L2.913,9.697L2.78,9.855L2.601,9.961L2.391,10L1.593,10L1.384,9.961L1.208,9.855L1.078,9.697L1.009,9.5L1,9.593L1,9.4L1.009,9.496L1.078,9.3L1.208,9.143L1.384,9.038L1.593,9zz" fill="#797979"/>
      <path d="M4.5,4.188L10.5,4.188L10.5,0.5L4.5,0.5zz" fill="#FFFFFF"/>
      <path d="M4.183,0.1133L4.01,0.402L4,0.5L4,4.188L4.113,4.505L4.402,4.678L4.5,4.688L10.5,4.688L10.82,4.575L10.99,4.286L11,4.188L11,0.5L10.89,0.183L10.6,0.009766L10.5,0L4.5,0zM10,1L10,3.688L5,3.688L5,1zz" fill="#797979"/>
      <path d="M2,5.7L2.048,6.156L2.185,6.584L2.4,6.974L2.684,7.316L3.026,7.6L3.416,7.815L3.844,7.952L4.3,8L7.261,8L7.613,7.613L8.004,7.257L8.427,6.941L8.88,6.665L9.361,6.433L9.866,6.248L10.39,6.112L10.94,6.029L11.5,6L12.19,6.043L12.85,6.167L12.94,6.196L12.95,6.156L13,5.7L13,4L2,4zz" fill="#FFFFFF"/>
      <path d="M3,5.483L3.031,5.789L3.119,6.074L3.259,6.331L3.444,6.556L3.669,6.741L3.926,6.881L4.211,6.969L4.517,7L8.348,7L8.427,6.941L8.88,6.665L9.361,6.433L9.866,6.248L10.39,6.112L10.94,6.029L11.5,6L11.9,6.025L11.97,5.789L12,5.483L12,3L3,3zz" fill="#4DA07D"/>
      <path d="M4,14.5L6.901,14.5L6.641,14.07L6.368,13.48L6.167,12.85L6.043,12.19L6,11.5L6.029,10.94L6.096,10.5L4,10.5zz" fill="#FFFFFF"/>
      <path d="M3.683,10.11L3.51,10.4L3.5,10.5L3.5,14.5L3.613,14.82L3.902,14.99L4,15L7.272,15L6.98,14.63L6.641,14.07L6.607,14L4.5,14L4.5,11L6.025,11L6.029,10.94L6.112,10.39L6.213,10L4,10zz" fill="#797979"/>
      <path d="M5.683,12.11L5.51,12.4L5.559,12.73L5.808,12.96L6,13L6.216,13L6.167,12.85L6.043,12.19L6.031,12L6,12zz" fill="#B4B4B5"/>
      <path d="M1.362,9.047L1.173,9.174L1.046,9.362L1.02,9.496L1.046,9.631L1.173,9.819L1.362,9.946L1.593,9.993L2.391,9.993L2.621,9.946L2.81,9.819L2.937,9.631L2.964,9.496L2.937,9.362L2.81,9.173L2.622,9.046L2.391,9L1.593,9zM2.964,9.496L2.984,9.593L2.984,9.4L2.964,9.496zM1.02,9.496L1,9.4L1,9.593L1.02,9.496zz" fill="#FFFFFF"/>
    </g>
    <g id="overlay">
      <path d="M11.5097,7.6964c2.0924,0,3.7886,1.6962,3.7886,3.7886c0,2.0924,-1.6962,3.7886,-3.7886,3.7886c-2.0924,0,-3.7886,-1.6962,-3.7886,-3.7886C7.7211,9.3926,9.4173,7.6964,11.5097,7.6964z" fill-rule="evenodd" fill="#FFFFFF"/>
      <path d="M11.4928,15.9855C9.0155,15.9855,7,13.9701,7,11.4928S9.0155,7,11.4928,7s4.4928,2.0155,4.4928,4.4928S13.9701,15.9855,11.4928,15.9855zM11.4928,8.0401c-1.9038,0,-3.4527,1.5489,-3.4527,3.4527c0,1.9039,1.5489,3.4527,3.4527,3.4527c1.9039,0,3.4527,-1.5489,3.4527,-3.4527C14.9455,9.5889,13.3966,8.0401,11.4928,8.0401z" fill-rule="evenodd" fill="#797979"/>
      <path d="M11.4928,7.1915c-2.3755,0,-4.3013,1.9258,-4.3013,4.3013c0,2.3755,1.9258,4.3013,4.3013,4.3013s4.3013,-1.9258,4.3013,-4.3013C15.7941,9.1172,13.8683,7.1915,11.4928,7.1915zM11.4928,15.137c-2.0126,0,-3.6442,-1.6316,-3.6442,-3.6442c0,-2.0126,1.6316,-3.6442,3.6442,-3.6442s3.6442,1.6316,3.6442,3.6442C15.137,13.5054,13.5054,15.137,11.4928,15.137z" fill-rule="evenodd" fill="#797979"/>
      <path d="M13.4291,13.8025c-0.3332,-0.0001,-1.8552,-1.3305,-2.0595,-1.5366c-0.18,-0.1816,-0.3125,-0.3152,-0.2603,-0.4859c-0.019,-0.098,-0.0215,-0.2161,-0.0211,-0.33c0.0007,-0.2121,0.0422,-0.9361,0.1057,-1.5878c0.1331,-1.3672,0.2504,-1.3672,0.3446,-1.3672c0.0949,0.0005,0.2126,0.0011,0.3202,1.3506c0.053,0.6645,0.0795,1.374,0.0788,1.5681c-0.0003,0.0698,-0.0007,0.1379,-0.0033,0.2005c0.0283,0.0265,0.0579,0.0555,0.0894,0.0873c0.1273,0.1284,0.5385,0.5753,0.9124,1.0266c0.6805,0.8215,0.6658,0.9601,0.5865,1.0388C13.5061,13.7831,13.4765,13.8025,13.4291,13.8025L13.4291,13.8025z" fill-rule="evenodd" fill="#3E79B4"/>
    </g>
  </g>
</svg>
