<?xml version="1.0" encoding="UTF-8"?>
<!DOCTYPE svg PUBLIC "-//W3C//DTD SVG 1.1//EN" "http://www.w3.org/Graphics/SVG/1.1/DTD/svg11.dtd">
<svg version="1.1" id="Layer_1" xmlns="http://www.w3.org/2000/svg" xmlns:xlink="http://www.w3.org/1999/xlink" x="0px" y="0px" width="16px" height="16px" viewBox="0 0 16 16" enable-background="new 0 0 16 16" xml:space="preserve">
  <g id="main">
    <g id="icon">
      <path d="M0.7219,4.093L0.3461,4.346L0.09277,4.722L0,5.182L0,10.8L0.09277,11.26L0.3461,11.64L0.7219,11.9L1.182,12L4.5,12L4.5,11L6.025,11L6.029,10.94L6.112,10.39L6.248,9.866L6.433,9.361L6.665,8.88L6.941,8.427L7.257,8.004L7.261,8L4.3,8L3.844,7.952L3.416,7.815L3.026,7.6L2.684,7.316L2.4,6.974L2.185,6.584L2.048,6.156L2,5.7L2,4L1.182,4zM13,5.7L12.95,6.156L12.94,6.196L13.48,6.368L14.07,6.641L14.63,6.98L15,7.272L15,5.182L14.91,4.722L14.65,4.346L14.28,4.093L13.82,4L13,4zM2.391,9L2.601,9.038L2.78,9.143L2.913,9.3L2.983,9.496L3,9.4L3,9.593L2.983,9.5L2.913,9.697L2.78,9.855L2.601,9.961L2.391,10L1.593,10L1.384,9.961L1.208,9.855L1.078,9.697L1.009,9.5L1,9.593L1,9.4L1.009,9.496L1.078,9.3L1.208,9.143L1.384,9.038L1.593,9zz" fill="#797979"/>
      <path d="M4.5,4.188L10.5,4.188L10.5,0.5L4.5,0.5zz" fill="#FFFFFF"/>
      <path d="M4.183,0.1133L4.01,0.402L4,0.5L4,4.188L4.113,4.505L4.402,4.678L4.5,4.688L10.5,4.688L10.82,4.575L10.99,4.286L11,4.188L11,0.5L10.89,0.183L10.6,0.009766L10.5,0L4.5,0zM10,1L10,3.688L5,3.688L5,1zz" fill="#797979"/>
      <path d="M2,5.7L2.048,6.156L2.185,6.584L2.4,6.974L2.684,7.316L3.026,7.6L3.416,7.815L3.844,7.952L4.3,8L7.261,8L7.613,7.613L8.004,7.257L8.427,6.941L8.88,6.665L9.361,6.433L9.866,6.248L10.39,6.112L10.94,6.029L11.5,6L12.19,6.043L12.85,6.167L12.94,6.196L12.95,6.156L13,5.7L13,4L2,4zz" fill="#FFFFFF"/>
      <path d="M3,5.483L3.031,5.789L3.119,6.074L3.259,6.331L3.444,6.556L3.669,6.741L3.926,6.881L4.211,6.969L4.517,7L8.348,7L8.427,6.941L8.88,6.665L9.361,6.433L9.866,6.248L10.39,6.112L10.94,6.029L11.5,6L11.9,6.025L11.97,5.789L12,5.483L12,3L3,3zz" fill="#4DA07D"/>
      <path d="M4,14.5L6.901,14.5L6.641,14.07L6.368,13.48L6.167,12.85L6.043,12.19L6,11.5L6.029,10.94L6.096,10.5L4,10.5zz" fill="#FFFFFF"/>
      <path d="M3.683,10.11L3.51,10.4L3.5,10.5L3.5,14.5L3.613,14.82L3.902,14.99L4,15L7.272,15L6.98,14.63L6.641,14.07L6.607,14L4.5,14L4.5,11L6.025,11L6.029,10.94L6.112,10.39L6.213,10L4,10zz" fill="#797979"/>
      <path d="M5.683,12.11L5.51,12.4L5.559,12.73L5.808,12.96L6,13L6.216,13L6.167,12.85L6.043,12.19L6.031,12L6,12zz" fill="#B4B4B5"/>
      <path d="M1.362,9.047L1.173,9.174L1.046,9.362L1.02,9.496L1.046,9.631L1.173,9.819L1.362,9.946L1.593,9.993L2.391,9.993L2.621,9.946L2.81,9.819L2.937,9.631L2.964,9.496L2.937,9.362L2.81,9.173L2.622,9.046L2.391,9L1.593,9zM2.964,9.496L2.984,9.593L2.984,9.4L2.964,9.496zM1.02,9.496L1,9.4L1,9.593L1.02,9.496zz" fill="#FFFFFF"/>
    </g>
    <g id="overlay">
      <path d="M11.507,16c-2.4774,0,-4.493,-2.0156,-4.493,-4.4931c0,-2.4775,2.0155,-4.4931,4.493,-4.4931S16,9.0295,16,11.5069C16,13.9844,13.9845,16,11.507,16zM11.2436,14.9741c0.094,0.0072,0.1805,0.0187,0.2634,0.0187c0.0588,0,0.1206,-0.0138,0.1921,-0.0179c0.0713,-0.2055,0.3091,-0.8749,0.4852,-1.7749H10.76C10.9327,14.1,11.1602,14.7337,11.2436,14.9741zM12.9919,13.2c-0.1399,0.7,-0.3182,1.264,-0.431,1.6056C13.3947,14.5408,14.109,14,14.544,13.2H12.9919zM8.4701,13.2c0.4305,0.8,1.136,1.3298,1.9591,1.5979c-0.1155,-0.3412,-0.2975,-0.8979,-0.4403,-1.5979H8.4701zM14.8539,12.5c0.0974,-0.3,0.1468,-0.6624,0.1468,-1.0036c0,-0.3388,-0.0486,-0.6964,-0.1446,-0.9964h-1.7328c0.0463,0.3,0.0698,0.6879,0.0698,0.9919c0,0.305,-0.0255,0.6081,-0.0758,1.0081H14.8539zM12.3115,12.5c0.0531,-0.4,0.0799,-0.725,0.0799,-1.0382c0,-0.2949,-0.0227,-0.6618,-0.0676,-0.9618h-1.7031c-0.0449,0.3,-0.0676,0.6669,-0.0676,0.9618c0,0.313,0.0269,0.6382,0.0799,1.0382H12.3115zM9.86,12.5c-0.0517,-0.4,-0.0779,-0.7031,-0.0779,-1.0081c0,-0.3042,0.0241,-0.6919,0.0717,-0.9919H8.1579c-0.0959,0.3,-0.1446,0.6576,-0.1446,0.9964c0,0.3412,0.0494,0.7036,0.1468,1.0036H9.86zM14.548,9.8c-0.4318,-0.8,-1.1419,-1.34,-1.9716,-1.6078C12.6893,8.534,12.8669,9.1,13.003,9.8H14.548zM12.2026,9.8c-0.1681,-0.9,-0.4025,-1.5314,-0.4888,-1.7745c-0.0772,-0.0048,-0.1437,-0.0097,-0.2069,-0.0097c-0.0889,0,-0.1803,0.0078,-0.2782,0.0157C11.143,8.2739,10.9092,8.9,10.7417,9.8H12.2026zM9.9775,9.8c0.1389,-0.7,0.3201,-1.2589,0.4356,-1.6c-0.8186,0.2711,-1.5197,0.8,-1.947,1.6H9.9775z" fill="#3E79B4"/>
    </g>
  </g>
</svg>
