<?xml version="1.0" encoding="UTF-8"?>
<!DOCTYPE svg PUBLIC "-//W3C//DTD SVG 1.1//EN" "http://www.w3.org/Graphics/SVG/1.1/DTD/svg11.dtd">
<svg version="1.1" id="Layer_1" xmlns="http://www.w3.org/2000/svg" xmlns:xlink="http://www.w3.org/1999/xlink" x="0px" y="0px" width="16px" height="16px" viewBox="0 0 16 16" enable-background="new 0 0 16 16" xml:space="preserve">
  <g id="main">
    <g id="icon">
      <path d="M14,6.7L13.95,7.156L13.82,7.584L13.6,7.974L13.32,8.316L12.97,8.6L12.58,8.815L12.16,8.952L11.7,9L7.652,9L7.573,9.059L7.12,9.335L6.639,9.567L6.134,9.752L5.607,9.888L5.062,9.971L4.5,10L3.814,9.957L3.153,9.833L2.522,9.632L1.927,9.359L1.371,9.02L1,8.728L1,11.8L1.093,12.26L1.346,12.64L1.722,12.9L2.182,13L5.5,13L5.5,12L11.5,12L11.5,13L14.82,13L15.28,12.9L15.65,12.64L15.91,12.26L16,11.8L16,6.182L15.91,5.722L15.65,5.346L15.28,5.093L14.82,5L14,5zM3.391,10L3.601,10.04L3.78,10.14L3.913,10.3L3.983,10.5L4,10.4L4,10.59L3.983,10.5L3.913,10.7L3.78,10.86L3.601,10.96L3.391,11L2.593,11L2.384,10.96L2.208,10.86L2.078,10.7L2.009,10.5L2,10.59L2,10.4L2.009,10.5L2.078,10.3L2.208,10.14L2.384,10.04L2.593,10zz" fill="#797979"/>
      <path d="M9.359,1.927L9.632,2.522L9.833,3.153L9.957,3.814L10,4.5L9.971,5.062L9.952,5.188L11.5,5.188L11.5,1.5L9.099,1.5zz" fill="#FFFFFF"/>
      <path d="M9.02,1.371L9.359,1.927L9.393,2L11,2L11,4.688L9.99,4.688L9.971,5.062L9.888,5.607L9.867,5.688L11.5,5.688L11.82,5.575L11.99,5.286L12,5.188L12,1.5L11.89,1.183L11.6,1.01L11.5,1L8.728,1zz" fill="#797979"/>
      <path d="M9.971,5.062L9.888,5.607L9.752,6.134L9.567,6.639L9.335,7.12L9.059,7.573L8.743,7.996L8.387,8.387L7.996,8.743L7.652,9L11.7,9L12.16,8.952L12.58,8.815L12.97,8.6L13.32,8.316L13.6,7.974L13.82,7.584L13.95,7.156L14,6.7L14,5L9.975,5zz" fill="#FFFFFF"/>
      <path d="M10,4.5L9.971,5.062L9.888,5.607L9.752,6.134L9.567,6.639L9.335,7.12L9.059,7.573L8.743,7.996L8.739,8L11.48,8L11.79,7.969L12.07,7.881L12.33,7.741L12.56,7.556L12.74,7.331L12.88,7.074L12.97,6.789L13,6.483L13,4L9.969,4zz" fill="#4DA07D"/>
      <path d="M5,15.5L12,15.5L12,11.5L5,11.5zz" fill="#FFFFFF"/>
      <path d="M4.683,11.11L4.51,11.4L4.5,11.5L4.5,15.5L4.613,15.82L4.902,15.99L5,16L12,16L12.32,15.89L12.49,15.6L12.5,15.5L12.5,11.5L12.39,11.18L12.1,11.01L12,11L5,11zM11.5,12L11.5,15L5.5,15L5.5,12zz" fill="#797979"/>
      <path d="M6.683,13.11L6.51,13.4L6.559,13.73L6.808,13.96L7,14L10,14L10.32,13.89L10.49,13.6L10.44,13.27L10.19,13.04L10,13L7,13zz" fill="#B4B4B5"/>
      <path d="M2.362,10.05L2.173,10.17L2.046,10.36L2.02,10.5L2.046,10.63L2.173,10.82L2.362,10.95L2.593,10.99L3.391,10.99L3.621,10.95L3.81,10.82L3.937,10.63L3.964,10.5L3.937,10.36L3.81,10.17L3.622,10.05L3.391,10L2.593,10zM3.964,10.5L3.984,10.59L3.984,10.4L3.964,10.5zM2.02,10.5L2,10.4L2,10.59L2.02,10.5zz" fill="#FFFFFF"/>
    </g>
    <g id="overlay">
      <path d="M8.7375,3.9804L6.326,3.8797c-0.0271,-0.0799,-0.0592,-0.1576,-0.0961,-0.2324l1.6339,-1.7762c0.1025,-0.1025,0.1025,-0.2687,0,-0.3712l-0.3637,-0.3637c-0.1025,-0.1025,-0.2687,-0.1025,-0.3712,0L5.3527,2.7701c-0.0748,-0.037,-0.1525,-0.069,-0.2324,-0.0961L5.0196,0.2625c0,-0.145,-0.1175,-0.2625,-0.2625,-0.2625h-0.5143c-0.145,0,-0.2625,0.1175,-0.2625,0.2625L3.8797,2.674c-0.0799,0.0271,-0.1575,0.0592,-0.2324,0.0961L1.8711,1.1362c-0.1025,-0.1025,-0.2687,-0.1025,-0.3712,0l-0.3637,0.3637c-0.1025,0.1025,-0.1025,0.2687,0,0.3712l1.6339,1.7762c-0.037,0.0748,-0.069,0.1525,-0.0961,0.2324L0.2625,3.9804C0.1175,3.9804,0,4.0979,0,4.2429v0.5143c0,0.145,0.1175,0.2625,0.2625,0.2625l2.4115,0.1007c0.0271,0.0799,0.0592,0.1576,0.0961,0.2324L1.1362,7.1289c-0.1025,0.1025,-0.1025,0.2687,0,0.3712l0.3637,0.3637c0.1025,0.1025,0.2687,0.1025,0.3712,0l1.7762,-1.6339c0.0748,0.037,0.1525,0.069,0.2324,0.0961l0.1007,2.4115c0,0.145,0.1175,0.2625,0.2625,0.2625h0.5143c0.145,0,0.2625,-0.1175,0.2625,-0.2625l0.1007,-2.4115c0.0799,-0.0271,0.1576,-0.0592,0.2324,-0.0961l1.7762,1.6339c0.1025,0.1025,0.2687,0.1025,0.3712,0l0.3637,-0.3637c0.1025,-0.1025,0.1025,-0.2687,0,-0.3712L6.2299,5.3527c0.037,-0.0748,0.069,-0.1525,0.0961,-0.2324l2.4115,-0.1007c0.145,0,0.2625,-0.1175,0.2625,-0.2625v-0.5143C9,4.0979,8.8825,3.9804,8.7375,3.9804zM4.5,5.1c-0.426,0,-0.6,-0.174,-0.6,-0.6c0,-0.426,0.174,-0.6,0.6,-0.6s0.6,0.174,0.6,0.6C5.1,4.926,4.926,5.1,4.5,5.1z" fill-rule="evenodd" fill="#EAB765"/>
    </g>
  </g>
</svg>
