<?xml version="1.0" encoding="UTF-8"?>
<!DOCTYPE svg PUBLIC "-//W3C//DTD SVG 1.1//EN" "http://www.w3.org/Graphics/SVG/1.1/DTD/svg11.dtd">
<svg version="1.1" id="Layer_1" xmlns="http://www.w3.org/2000/svg" xmlns:xlink="http://www.w3.org/1999/xlink" x="0px" y="0px" width="16px" height="16px" viewBox="0 0 16 16" enable-background="new 0 0 16 16" xml:space="preserve">
  <g id="icon">
    <path d="M8,0C3.6,0,0,3.6,0,8s3.6,8,8,8s8,-3.6,8,-8S12.4,0,8,0zM6.1147,7.95c0,0.0594,0,0.0594,0,0.1188l3.6241,1.7824c0.2971,-0.2376,0.7129,-0.4159,1.1288,-0.4159c1.01,0,1.7824,0.7724,1.7824,1.7824S11.8776,13,10.8676,13s-1.7824,-0.7724,-1.7824,-1.7824c0,-0.0594,0,-0.0594,0,-0.1188L5.4612,9.3165c-0.2971,0.2376,-0.7129,0.4159,-1.1288,0.4159C3.3224,9.7324,2.55,8.96,2.55,7.95s0.7724,-1.7824,1.7824,-1.7824c0.4159,0,0.8318,0.1782,1.1288,0.4159l3.6241,-1.7824c0,-0.0594,0,-0.0594,0,-0.1188c0,-1.01,0.7724,-1.7824,1.7824,-1.7824S12.65,3.6724,12.65,4.6824s-0.7724,1.7824,-1.7824,1.7824c-0.4159,0,-0.8318,-0.1782,-1.1288,-0.4159L6.1147,7.8312C6.1147,7.8906,6.1147,7.8906,6.1147,7.95z" fill="#4EA17E"/>
    <path d="M4.3324,9.7324c0.4159,0,0.8318,-0.1782,1.1288,-0.4159l3.6241,1.7824c0,0.0594,0,0.0594,0,0.1188c0,1.01,0.7724,1.7824,1.7824,1.7824s1.7824,-0.7724,1.7824,-1.7824s-0.7724,-1.7824,-1.7824,-1.7824c-0.4159,0,-0.8318,0.1782,-1.1288,0.4159L6.1147,8.0688c0,-0.0594,0,-0.0594,0,-0.1188s0,-0.0594,0,-0.1188l3.6241,-1.7824c0.2971,0.2376,0.7129,0.4159,1.1288,0.4159c1.01,0,1.7824,-0.7724,1.7824,-1.7824S11.8776,2.9,10.8676,2.9s-1.7824,0.7724,-1.7824,1.7824c0,0.0594,0,0.0594,0,0.1188L5.4612,6.5835c-0.2971,-0.2376,-0.7129,-0.4159,-1.1288,-0.4159C3.3224,6.1676,2.55,6.94,2.55,7.95S3.3818,9.7324,4.3324,9.7324z" fill="#FFFFFF"/>
  </g>
</svg>
