<?xml version="1.0" encoding="UTF-8"?>
<!DOCTYPE svg PUBLIC "-//W3C//DTD SVG 1.1//EN" "http://www.w3.org/Graphics/SVG/1.1/DTD/svg11.dtd">
<svg version="1.1" id="Layer_1" xmlns="http://www.w3.org/2000/svg" xmlns:xlink="http://www.w3.org/1999/xlink" x="0px" y="0px" width="16px" height="16px" viewBox="0 0 16 16" enable-background="new 0 0 16 16" xml:space="preserve">
  <g id="main">
    <g id="icon">
      <path d="M7.461,0.1094L6.614,0.2295L5.796,0.4271L5.014,0.7008L4.272,1.049L3.573,1.468L2.924,1.958L2.328,2.517L1.816,3.106L1.368,3.74L0.9832,4.414L0.6648,5.124L0.4141,5.865L0.233,6.634L0.123,7.425L0.08594,8.235L0.1189,8.956L0.2174,9.65L0.3803,10.31L0.6066,10.95L0.8957,11.54L1.246,12.1L1.658,12.63L2.13,13.11L2.622,13.52L3.154,13.88L3.721,14.18L4.32,14.44L4.947,14.64L5.599,14.78L6.271,14.87L6.961,14.9L8.094,14.85L9,14.72L9,14L7.3,14L7.038,13.97L6.794,13.9L6.381,13.62L6.332,13.55L6.014,13.5L5.462,13.38L4.939,13.21L4.449,12.99L3.993,12.73L3.572,12.43L3.188,12.09L2.843,11.71L2.539,11.29L2.277,10.84L2.059,10.36L1.887,9.839L1.761,9.291L1.685,8.714L1.659,8.111L1.691,7.387L1.784,6.69L1.936,6.025L2.145,5.392L2.408,4.795L2.722,4.236L3.086,3.718L3.496,3.244L3.951,2.815L4.447,2.435L4.982,2.107L5.554,1.832L6.16,1.614L6.797,1.455L7.464,1.358L8.158,1.325L9.305,1.415L10.33,1.678L10.79,1.872L11.22,2.106L11.61,2.379L11.97,2.689L12.29,3.037L12.57,3.42L12.81,3.838L13.01,4.288L13.17,4.771L13.28,5.286L13.35,6.203L13.62,6.381L13.9,6.794L13.97,7.038L14,7.3L14,9L14.32,9L14.57,8.468L14.83,7.438L14.92,6.257L14.89,5.613L14.8,4.988L14.66,4.386L14.45,3.809L14.2,3.262L13.88,2.747L13.52,2.268L13.11,1.828L12.63,1.422L12.12,1.068L11.57,0.7656L10.99,0.5168L10.37,0.3221L9.72,0.182L9.041,0.09746L8.335,0.06895zM8.343,3.309L7.77,3.389L7.215,3.521L6.68,3.704L6.169,3.935L5.686,4.215L5.232,4.542L4.812,4.914L4.451,5.305L4.132,5.727L3.857,6.174L3.628,6.643L3.447,7.13L3.316,7.631L3.236,8.141L3.209,8.657L3.27,9.335L3.441,9.925L3.708,10.43L4.053,10.84L4.461,11.17L4.915,11.4L5.401,11.54L5.9,11.58L6,11.58L6,10.3L6.026,10.04L6.077,9.876L5.961,9.844L5.736,9.727L5.549,9.565L5.402,9.36L5.295,9.114L5.207,8.506L5.277,7.791L5.477,7.121L5.792,6.51L6.207,5.974L6.709,5.531L7.281,5.194L7.909,4.981L8.579,4.906L9.145,4.945L9.511,5.023L9.18,6.679L9.381,6.381L9.794,6.102L10.04,6.026L10.3,6L11.18,6L11.62,3.806L11.51,3.758L10.94,3.558L10.31,3.408L9.627,3.314L8.93,3.282zM8.939,7.714L8.733,8.193L8.464,8.65L8.191,9L9,9L9,7.488zz" fill="#3E78B3"/>
    </g>
    <g id="overlay">
      <path d="M15.7,10h-2.7V7.3c0,-0.166,-0.134,-0.3,-0.3,-0.3h-2.4c-0.166,0,-0.3,0.134,-0.3,0.3v2.7H7.3c-0.166,0,-0.3,0.134,-0.3,0.3v2.4c0,0.166,0.134,0.3,0.3,0.3h2.7v2.7c0,0.166,0.134,0.3,0.3,0.3h2.4c0.166,0,0.3,-0.134,0.3,-0.3v-2.7h2.7c0.166,0,0.3,-0.134,0.3,-0.3v-2.4C16,10.134,15.866,10,15.7,10z" fill="#4EA17E"/>
    </g>
  </g>
</svg>
