<?xml version="1.0" encoding="UTF-8"?>
<!DOCTYPE svg PUBLIC "-//W3C//DTD SVG 1.1//EN" "http://www.w3.org/Graphics/SVG/1.1/DTD/svg11.dtd">
<svg version="1.1" id="Layer_1" xmlns="http://www.w3.org/2000/svg" xmlns:xlink="http://www.w3.org/1999/xlink" x="0px" y="0px" width="16px" height="16px" viewBox="0 0 16 16" enable-background="new 0 0 16 16" xml:space="preserve">
  <g id="main">
    <g id="icon">
      <path d="M0.3518,0.02539L0.2127,0.09238L0.1346,0.1873L0.1029,0.2959L0.1213,0.4992L0.1529,0.5918L5,7.392L5,15L7.272,15L6.98,14.63L6.641,14.07L6.368,13.48L6.167,12.85L6.043,12.19L6,11.5L6.029,10.94L6.112,10.39L6.248,9.866L6.433,9.361L6.665,8.88L6.941,8.427L7,8.348L7,7.306L9.5,1L12.16,1.018L11.56,2L10.12,4.162L8.063,7.213L8.427,6.941L8.88,6.665L9.361,6.433L9.81,6.268L13.97,0.5918L14,0.4992L14.03,0.2959L14,0.1873L13.91,0.09238L13.77,0.02539L13.54,0L0.5658,0zz" fill-rule="evenodd" fill="#797979"/>
      <path d="M7,7.306L7,8.348L7.257,8.004L7.613,7.613L8.004,7.257L8.063,7.213L10.12,4.162L11.56,2L12.16,1.018L9.5,1zz" fill-rule="evenodd" fill="#FFFFFF"/>
    </g>
    <g id="overlay">
      <path d="M14.682,14.682c1.7574,-1.7574,1.7574,-4.6066,0,-6.364c-1.7574,-1.7574,-4.6066,-1.7574,-6.364,0c-1.7574,1.7574,-1.7574,4.6066,0,6.364C10.0754,16.4393,12.9246,16.4393,14.682,14.682zM10.5,14l2,-2H8.5v-1h4l-2,-2h1.6l2.5,2.5l-2.5,2.5L10.5,14z" fill-rule="evenodd" fill="#8C53A1"/>
    </g>
  </g>
</svg>
