<?xml version="1.0" encoding="UTF-8"?>
<!DOCTYPE svg PUBLIC "-//W3C//DTD SVG 1.1//EN" "http://www.w3.org/Graphics/SVG/1.1/DTD/svg11.dtd">
<svg version="1.1" id="Layer_1" xmlns="http://www.w3.org/2000/svg" xmlns:xlink="http://www.w3.org/1999/xlink" x="0px" y="0px" width="16px" height="16px" viewBox="0 0 16 16" enable-background="new 0 0 16 16" xml:space="preserve">
  <g id="main">
    <g id="icon">
      <path d="M0.3518,0.02539L0.2127,0.09238L0.1346,0.1873L0.1029,0.2959L0.1213,0.4992L0.1529,0.5918L5,7.392L5,15L9,15L9,14L8,14L8,14.2L7,14.2L7,13.96L6.794,13.9L6.381,13.62L6.102,13.21L6.026,12.96L6,12.7L6,10.3L6.026,10.04L6.102,9.794L6.381,9.381L6.794,9.102L7,9.038L7,7.306L9.5,1L12.16,1.018L11.56,2L10.12,4.162L8,7.306L8,9L9,9L9,7.374L9,7.3L9.026,7.038L9.102,6.794L9.381,6.381L9.794,6.102L9.972,6.047L13.97,0.5918L14,0.4992L14.03,0.2959L14,0.1873L13.91,0.09238L13.77,0.02539L13.54,0L0.5658,0zz" fill-rule="evenodd" fill="#797979"/>
      <path d="M7,7.306L7,9.038L7.038,9.026L7.3,9L8,9L8,7.306L10.12,4.162L11.56,2L12.16,1.018L9.5,1zM7,14.2L8,14.2L8,14L7.3,14L7.038,13.97L7,13.96zz" fill-rule="evenodd" fill="#FFFFFF"/>
    </g>
    <g id="overlay">
      <path d="M15.7,10h-2.7V7.3c0,-0.166,-0.134,-0.3,-0.3,-0.3h-2.4c-0.166,0,-0.3,0.134,-0.3,0.3v2.7H7.3c-0.166,0,-0.3,0.134,-0.3,0.3v2.4c0,0.166,0.134,0.3,0.3,0.3h2.7v2.7c0,0.166,0.134,0.3,0.3,0.3h2.4c0.166,0,0.3,-0.134,0.3,-0.3v-2.7h2.7c0.166,0,0.3,-0.134,0.3,-0.3v-2.4C16,10.134,15.866,10,15.7,10z" fill="#4EA17E"/>
    </g>
  </g>
</svg>
