<?xml version="1.0" encoding="UTF-8"?>
<!DOCTYPE svg PUBLIC "-//W3C//DTD SVG 1.1//EN" "http://www.w3.org/Graphics/SVG/1.1/DTD/svg11.dtd">
<svg version="1.1" id="Layer_1" xmlns="http://www.w3.org/2000/svg" xmlns:xlink="http://www.w3.org/1999/xlink" x="0px" y="0px" width="16px" height="16px" viewBox="0 0 16 16" enable-background="new 0 0 16 16" xml:space="preserve">
  <g id="main">
    <g id="icon">
      <path d="M9.957,3.814L10,4.5L9.971,5.062L9.888,5.607L9.752,6.134L9.567,6.639L9.335,7.12L9.059,7.573L8.743,7.996L8.387,8.387L7.996,8.743L7.573,9.059L7.12,9.335L6.639,9.567L6.134,9.752L5.607,9.888L5.062,9.971L4.5,10L3.814,9.957L3.153,9.833L2.522,9.632L1.927,9.359L1.5,9.099L1.5,13.1L1.53,13.25L1.613,13.38L1.735,13.47L1.884,13.5L15.12,13.5L15.27,13.47L15.39,13.38L15.47,13.25L15.5,13.1L15.5,3.9L15.47,3.744L15.39,3.617L15.27,3.531L15.12,3.5L9.898,3.5zz" fill-rule="evenodd" fill="#FFFFFF"/>
      <path d="M9.833,3.153L9.957,3.814L9.969,4L15,4L15,13L2,13L2,9.393L1.927,9.359L1.371,9.02L1,8.728L1,13.1L1,13.14L1.009,13.19L1.039,13.35L1.058,13.44L1.111,13.52L1.193,13.65L1.246,13.73L1.326,13.79L1.448,13.87L1.532,13.93L1.632,13.95L1.782,13.99L1.832,14L1.884,14L15.12,14L15.17,14L15.22,13.99L15.37,13.95L15.47,13.93L15.55,13.87L15.67,13.79L15.75,13.73L15.81,13.65L15.89,13.52L15.94,13.44L15.96,13.35L15.99,13.19L16,13.14L16,13.1L16,3.9L16,3.852L15.99,3.805L15.96,3.649L15.94,3.554L15.89,3.472L15.81,3.345L15.75,3.264L15.67,3.208L15.55,3.122L15.47,3.063L15.37,3.042L15.22,3.011L15.17,3L15.12,3L9.784,3zz" fill="#6D6E71"/>
      <path d="M10.49,7.665L10.28,7.922L10.27,8.258L10.37,8.428L14.88,13.58L15.18,13.74L15.51,13.68L15.73,13.42L15.73,13.09L15.64,12.92L11.12,7.769L10.82,7.605zM5.062,9.971L4.5,10L4.039,9.971L1.431,12.92L1.306,13.23L1.407,13.55L1.689,13.73L2.023,13.7L2.18,13.58L5.424,9.916zz" fill="#6D6E71"/>
      <path d="M12.62,5.611L12.61,5.614L10.9,7.25L9.974,8.067L9.488,8.398L9.084,8.626L8.765,8.746L8.508,8.781L8.254,8.747L8.07,8.676L7.996,8.743L7.573,9.059L7.146,9.319L7.479,9.512L7.513,9.532L7.549,9.546L7.948,9.701L8.003,9.722L8.062,9.73L8.44,9.781L8.507,9.79L8.574,9.781L8.956,9.73L9.013,9.722L9.066,9.702L9.473,9.547L9.509,9.534L9.542,9.516L9.998,9.258L10.02,9.248L10.03,9.236L10.56,8.876L10.59,8.858L10.61,8.837L11.57,7.991L11.57,7.985L11.58,7.979L13.31,6.335L13.31,6.334L13.31,6.332L15.7,4.009L15.01,3.291zz" fill="#6D6E71"/>
    </g>
    <g id="overlay">
      <path d="M8.7375,3.9804L6.326,3.8797c-0.0271,-0.0799,-0.0592,-0.1576,-0.0961,-0.2324l1.6339,-1.7762c0.1025,-0.1025,0.1025,-0.2687,0,-0.3712l-0.3637,-0.3637c-0.1025,-0.1025,-0.2687,-0.1025,-0.3712,0L5.3527,2.7701c-0.0748,-0.037,-0.1525,-0.069,-0.2324,-0.0961L5.0196,0.2625c0,-0.145,-0.1175,-0.2625,-0.2625,-0.2625h-0.5143c-0.145,0,-0.2625,0.1175,-0.2625,0.2625L3.8797,2.674c-0.0799,0.0271,-0.1575,0.0592,-0.2324,0.0961L1.8711,1.1362c-0.1025,-0.1025,-0.2687,-0.1025,-0.3712,0l-0.3637,0.3637c-0.1025,0.1025,-0.1025,0.2687,0,0.3712l1.6339,1.7762c-0.037,0.0748,-0.069,0.1525,-0.0961,0.2324L0.2625,3.9804C0.1175,3.9804,0,4.0979,0,4.2429v0.5143c0,0.145,0.1175,0.2625,0.2625,0.2625l2.4115,0.1007c0.0271,0.0799,0.0592,0.1576,0.0961,0.2324L1.1362,7.1289c-0.1025,0.1025,-0.1025,0.2687,0,0.3712l0.3637,0.3637c0.1025,0.1025,0.2687,0.1025,0.3712,0l1.7762,-1.6339c0.0748,0.037,0.1525,0.069,0.2324,0.0961l0.1007,2.4115c0,0.145,0.1175,0.2625,0.2625,0.2625h0.5143c0.145,0,0.2625,-0.1175,0.2625,-0.2625l0.1007,-2.4115c0.0799,-0.0271,0.1576,-0.0592,0.2324,-0.0961l1.7762,1.6339c0.1025,0.1025,0.2687,0.1025,0.3712,0l0.3637,-0.3637c0.1025,-0.1025,0.1025,-0.2687,0,-0.3712L6.2299,5.3527c0.037,-0.0748,0.069,-0.1525,0.0961,-0.2324l2.4115,-0.1007c0.145,0,0.2625,-0.1175,0.2625,-0.2625v-0.5143C9,4.0979,8.8825,3.9804,8.7375,3.9804zM4.5,5.1c-0.426,0,-0.6,-0.174,-0.6,-0.6c0,-0.426,0.174,-0.6,0.6,-0.6s0.6,0.174,0.6,0.6C5.1,4.926,4.926,5.1,4.5,5.1z" fill-rule="evenodd" fill="#EAB765"/>
    </g>
  </g>
</svg>
