<?xml version="1.0" encoding="UTF-8"?>
<!DOCTYPE svg PUBLIC "-//W3C//DTD SVG 1.1//EN" "http://www.w3.org/Graphics/SVG/1.1/DTD/svg11.dtd">
<svg version="1.1" id="Layer_1" xmlns="http://www.w3.org/2000/svg" xmlns:xlink="http://www.w3.org/1999/xlink" x="0px" y="0px" width="16px" height="16px" viewBox="0 0 16 16" enable-background="new 0 0 16 16" xml:space="preserve">
  <g id="main">
    <g id="icon">
      <path d="M0.7348,2.531L0.6125,2.617L0.5303,2.744L0.5,2.9L0.5,12.1L0.5303,12.25L0.6125,12.38L0.7348,12.47L0.8844,12.5L6.101,12.5L6.043,12.19L6,11.5L6.029,10.94L6.112,10.39L6.248,9.866L6.433,9.361L6.665,8.88L6.941,8.427L7.257,8.004L7.613,7.613L8.004,7.257L8.427,6.941L8.88,6.665L9.361,6.433L9.866,6.248L10.39,6.112L10.94,6.029L11.5,6L12.19,6.043L12.85,6.167L13.48,6.368L14.07,6.641L14.5,6.901L14.5,2.9L14.47,2.744L14.39,2.617L14.27,2.531L14.12,2.5L0.8844,2.5zz" fill-rule="evenodd" fill="#FFFFFF"/>
      <path d="M0.7816,2.011L0.632,2.042L0.5316,2.063L0.4477,2.122L0.3256,2.208L0.2459,2.264L0.193,2.345L0.1105,2.472L0.05781,2.554L0.03945,2.649L0.00918,2.805L0,2.852L0,2.9L0,12.1L0,12.14L0.00918,12.19L0.03945,12.35L0.05781,12.44L0.1105,12.52L0.193,12.65L0.2459,12.73L0.3256,12.79L0.4477,12.87L0.5316,12.93L0.632,12.95L0.7816,12.99L0.8324,13L0.8844,13L6.215,13L6.167,12.85L6.043,12.19L6.031,12L1,12L1,3L14,3L14,6.607L14.07,6.641L14.63,6.98L15,7.272L15,2.9L15,2.852L14.99,2.805L14.96,2.649L14.94,2.554L14.89,2.472L14.81,2.345L14.75,2.264L14.67,2.208L14.55,2.122L14.47,2.063L14.37,2.042L14.22,2.011L14.17,2L14.12,2L0.8844,2L0.8324,2zz" fill="#6D6E71"/>
      <path d="M5.104,6.698L4.948,6.817L0.4314,11.92L0.3061,12.23L0.407,12.55L0.6889,12.73L1.023,12.7L1.18,12.58L5.697,7.48L5.822,7.168L5.721,6.846L5.439,6.662zz" fill="#6D6E71"/>
      <path d="M11.62,4.611L11.61,4.614L9.911,6.236L10.39,6.112L10.94,6.029L11.5,6L11.6,6.006L12.31,5.335L12.31,5.334L12.31,5.332L14.7,3.009L14.01,2.291zM0.3596,3.007L2.538,5.143L2.541,5.145L2.543,5.147L4.241,6.768L4.248,6.774L4.255,6.78L5.446,7.837L5.467,7.855L5.489,7.871L5.999,8.231L6.017,8.244L6.036,8.255L6.479,8.512L6.513,8.532L6.549,8.546L6.807,8.646L6.941,8.427L7.257,8.004L7.465,7.775L7.254,7.747L6.947,7.628L6.558,7.402L6.088,7.07L4.923,6.037L3.234,4.424L1.06,2.293zz" fill="#6D6E71"/>
    </g>
    <g id="overlay">
      <path d="M11.5,7c-2.4853,0,-4.5,2.0147,-4.5,4.5c0,2.4853,2.0147,4.5,4.5,4.5s4.5,-2.0147,4.5,-4.5C16,9.0147,13.9853,7,11.5,7zM11.5,13.9833c-1.3715,0,-2.4833,-1.1118,-2.4833,-2.4833S10.1285,9.0167,11.5,9.0167s2.4833,1.1118,2.4833,2.4833S12.8715,13.9833,11.5,13.9833z" fill="#797979"/>
      <path d="M13.9833,11.5c0,1.3715,-1.1118,2.4833,-2.4833,2.4833S9.0167,12.8715,9.0167,11.5c0,-1.3715,1.1118,-2.4833,2.4833,-2.4833S13.9833,10.1285,13.9833,11.5z" fill="#FFFFFF"/>
      <circle cx="11.4752" cy="11.4752" r="1.8873" fill="#EAB765"/>
    </g>
  </g>
</svg>
