<?xml version="1.0" encoding="UTF-8"?>
<!DOCTYPE svg PUBLIC "-//W3C//DTD SVG 1.1//EN" "http://www.w3.org/Graphics/SVG/1.1/DTD/svg11.dtd">
<svg version="1.1" id="Layer_1" xmlns="http://www.w3.org/2000/svg" xmlns:xlink="http://www.w3.org/1999/xlink" x="0px" y="0px" width="16px" height="16px" viewBox="0 0 16 16" enable-background="new 0 0 16 16" xml:space="preserve">
  <g id="main">
    <g id="icon">
      <path d="M1.611,1.079L1.293,1.293L1.079,1.611L1,2L1,6L6.213,6L6.112,5.607L6.029,5.062L6,4.5L6.043,3.814L6.167,3.153L6.368,2.522L6.641,1.927L6.697,1.834L6.331,1.469L6.088,1.269L5.812,1.122L5.514,1.031L5.2,1L2,1zz" fill-rule="evenodd" fill="#96762C"/>
      <path d="M0.6107,7.079L0.293,7.293L0.07852,7.611L0,8L1,14L1.079,14.39L1.293,14.71L1.611,14.92L2,15L13,15L13.39,14.92L13.71,14.71L13.92,14.39L14,14L14.86,8.838L14.63,9.02L14.07,9.359L13.48,9.632L12.85,9.833L12.19,9.957L11.5,10L10.94,9.971L10.39,9.888L9.866,9.752L9.361,9.567L8.88,9.335L8.427,9.059L8.004,8.743L7.613,8.387L7.257,7.996L6.941,7.573L6.665,7.12L6.607,7L1,7zz" fill-rule="evenodd" fill="#E9B664"/>
    </g>
    <g id="overlay">
      <path d="M11.5,0C9.0147,0,7,2.0147,7,4.5c0,2.4853,2.0147,4.5,4.5,4.5s4.5,-2.0147,4.5,-4.5C16,2.0147,13.9853,0,11.5,0zM14,7h-3.5323L9.2935,5.7h2.5475L9.0512,2.932l0.9253,-0.9434L12.7,4.756V2.0467l1.3,1.3013V7z" fill-rule="evenodd" fill="#4EA17E"/>
      <polygon points="14,7 14,3.348 12.7,2.0467 12.7,4.756 9.9764,1.9886 9.0512,2.932 11.8411,5.7 9.2935,5.7 10.4677,7" fill="#FFFFFF" stroke-linejoin="miter"/>
    </g>
  </g>
</svg>
