<?xml version="1.0" encoding="UTF-8"?>
<!DOCTYPE svg PUBLIC "-//W3C//DTD SVG 1.1//EN" "http://www.w3.org/Graphics/SVG/1.1/DTD/svg11.dtd">
<svg version="1.1" id="Layer_1" xmlns="http://www.w3.org/2000/svg" xmlns:xlink="http://www.w3.org/1999/xlink" x="0px" y="0px" width="16px" height="16px" viewBox="0 0 16 16" enable-background="new 0 0 16 16" xml:space="preserve">
  <g id="main">
    <g id="icon">
      <path d="M1.838,0.5342L1.525,0.6322L1.24,0.7871L0.992,0.992L0.7871,1.24L0.6322,1.525L0.5342,1.838L0.5,2.175L0.5,11.83L0.5342,12.16L0.6322,12.48L0.7871,12.76L0.992,13.01L1.24,13.21L1.525,13.37L1.838,13.47L2.175,13.5L6.238,13.5L6.387,13.32L8.237,11.47L6.387,9.618L6.221,9.416L6.1,9.19L6.025,8.944L6,8.684L6.025,8.424L6.1,8.178L6.221,7.951L6.387,7.75L7.749,6.388L7.951,6.222L8.177,6.101L8.423,6.026L8.683,6.001L8.943,6.026L9.189,6.101L9.416,6.222L9.617,6.388L11.47,8.238L13.32,6.388L13.52,6.222L13.75,6.101L13.99,6.026L14.25,6.001L14.5,6.025L14.5,2.175L14.47,1.838L14.37,1.525L14.21,1.24L14.01,0.992L13.76,0.7871L13.48,0.6322L13.16,0.5342L12.83,0.5L2.175,0.5zz" fill="#FFFFFF"/>
      <path d="M2.124,0.002539L1.788,0.03672L1.738,0.0418L1.689,0.05684L1.376,0.1549L1.329,0.1695L1.286,0.1932L1.001,0.348L0.9588,0.3709L0.9219,0.4016L0.6736,0.6066L0.6369,0.6369L0.6066,0.6736L0.4016,0.9219L0.3709,0.9588L0.348,1.001L0.1932,1.286L0.1695,1.329L0.1549,1.376L0.05684,1.689L0.0418,1.738L0.03672,1.788L0.002539,2.124L0,2.15L0,2.175L0,11.83L0,11.85L0.002539,11.88L0.03672,12.21L0.0418,12.26L0.05684,12.31L0.1549,12.62L0.1695,12.67L0.1932,12.71L0.348,13L0.3709,13.04L0.4016,13.08L0.6066,13.33L0.6369,13.36L0.6736,13.39L0.9219,13.6L0.9588,13.63L1.001,13.65L1.286,13.81L1.329,13.83L1.376,13.85L1.69,13.94L1.738,13.96L1.788,13.96L2.124,14L2.15,14L2.175,14L6.05,14L6.097,13.75L6.218,13.53L6.387,13.32L6.705,13L2.201,13L1.939,12.97L1.721,12.91L1.522,12.8L1.347,12.65L1.203,12.48L1.095,12.28L1.027,12.06L1,11.8L1,2.201L1.027,1.939L1.095,1.721L1.203,1.522L1.347,1.347L1.522,1.203L1.721,1.095L1.939,1.027L2.201,1L12.8,1L13.06,1.027L13.28,1.095L13.48,1.203L13.65,1.347L13.8,1.522L13.91,1.721L13.97,1.939L14,2.201L14,6.026L14.25,6.001L14.51,6.026L14.76,6.101L14.98,6.222L15,6.236L15,2.175L15,2.15L15,2.124L14.96,1.788L14.96,1.738L14.94,1.689L14.85,1.376L14.83,1.329L14.81,1.286L14.65,1.001L14.63,0.9588L14.6,0.9219L14.39,0.6736L14.36,0.6369L14.33,0.6066L14.08,0.4016L14.04,0.3709L14,0.348L13.71,0.1932L13.67,0.1695L13.62,0.1549L13.31,0.05684L13.26,0.0418L13.21,0.03672L12.88,0.002539L12.85,0L12.83,0L2.175,0L2.15,0zM14.7,11.47L15,11.77L15,11.17zz" fill="#797979"/>
      <path d="M5.18,2.034L4.772,2.132L4.453,2.291L4.214,2.508L4.045,2.779L3.936,3.1L3.861,3.878L3.916,4.483L4.077,5.14L4.334,5.78L4.677,6.337L4.672,6.49L4.623,6.62L4.521,6.729L4.357,6.818L3.258,7.234L2.587,7.555L2.374,7.728L2.221,7.936L2.112,8.198L2.033,8.533L1.998,9.03L2.117,9.56L2.276,9.724L2.6,9.842L3.576,9.97L4.715,10L5.687,10L6.662,10L6.769,10L6.387,9.618L6.221,9.416L6.1,9.19L6.025,8.944L6,8.684L6.025,8.424L6.1,8.178L6.221,7.951L6.387,7.75L7.243,6.894L7.044,6.819L6.88,6.73L6.779,6.621L6.73,6.492L6.726,6.339L7.069,5.782L7.325,5.141L7.487,4.484L7.543,3.878L7.524,3.467L7.463,3.1L7.349,2.779L7.174,2.508L6.929,2.291L6.606,2.132L6.195,2.034L5.687,2zz" fill-rule="evenodd" fill="#3E79B4"/>
      <path d="M9.183,3.113L9.01,3.402L9.059,3.735L9.308,3.962L9.5,4L12.5,4L12.82,3.887L12.99,3.598L12.94,3.265L12.69,3.038L12.5,3L9.5,3zz" fill="#797979"/>
      <path d="M10.18,5.113L10.01,5.402L10.06,5.735L10.31,5.962L10.5,6L12.5,6L12.82,5.887L12.99,5.598L12.94,5.265L12.69,5.038L12.5,5L10.5,5zz" fill="#B4B4B5"/>
      <path d="M10.3,7.071L11.23,8L11.71,8L12.67,7.034L12.5,7L10.5,7zz" fill="#B4B4B5"/>
      <path d="M2.183,11.11L2.01,11.4L2.059,11.73L2.308,11.96L2.5,12L7.705,12L8.237,11.47L7.769,11L2.5,11zz" fill="#B4B4B5"/>
    </g>
    <g id="overlay">
      <path d="M15.906,14.544l-1.362,1.362c-0.125,0.125,-0.329,0.125,-0.454,0l-2.622,-2.622l-2.557,2.557c-0.125,0.125,-0.329,0.125,-0.454,0l-1.362,-1.362c-0.125,-0.125,-0.125,-0.329,0,-0.454l2.557,-2.557L7.094,8.911c-0.125,-0.125,-0.125,-0.329,0,-0.454l1.362,-1.362c0.125,-0.125,0.329,-0.125,0.454,0l2.557,2.557l2.557,-2.557c0.125,-0.125,0.329,-0.125,0.454,0l1.362,1.362c0.125,0.125,0.125,0.329,0,0.454l-2.557,2.557l2.622,2.622C16.031,14.215,16.031,14.418,15.906,14.544z" fill-rule="evenodd" fill="#CD4C32"/>
    </g>
  </g>
</svg>
