<?xml version="1.0" encoding="UTF-8"?>
<!DOCTYPE svg PUBLIC "-//W3C//DTD SVG 1.1//EN" "http://www.w3.org/Graphics/SVG/1.1/DTD/svg11.dtd">
<svg version="1.1" id="Layer_1" xmlns="http://www.w3.org/2000/svg" xmlns:xlink="http://www.w3.org/1999/xlink" x="0px" y="0px" width="16px" height="16px" viewBox="0 0 16 16" enable-background="new 0 0 16 16" xml:space="preserve">
  <g id="main">
    <g id="icon">
      <path d="M0.7359,4.875L0.6131,4.958L0.5303,5.081L0.5,5.231L0.5,14.11L0.5303,14.26L0.6131,14.39L0.7359,14.47L0.8861,14.5L7.981,14.5L7.355,13.86L7.091,13.47L7.002,13.01L7.087,12.56L7.347,12.17L10.08,9.373L10.11,9.351L10.51,9.091L10.98,9L12.9,9L13.23,9.049L13.52,9.187L13.76,9.404L13.93,9.688L14.01,10L14,10.32L13.89,10.62L13.7,10.88L13.58,11L14.5,11L14.5,5.231L14.47,5.081L14.39,4.958L14.26,4.875L14.11,4.845L0.8861,4.845zz" fill-rule="evenodd" fill="#FFFFFF"/>
      <path d="M0.6369,4.385L0.5391,4.405L0.4564,4.461L0.3336,4.543L0.2529,4.598L0.1986,4.678L0.1158,4.801L0.05996,4.884L0.04023,4.982L0.009961,5.132L0,5.181L0,5.231L0,14.11L0,14.16L0.009961,14.21L0.04023,14.36L0.05996,14.46L0.1158,14.54L0.1986,14.67L0.2529,14.75L0.3336,14.8L0.4564,14.88L0.5391,14.94L0.6369,14.96L0.7873,14.99L0.8363,15L0.8861,15L8.47,15L7.492,14L1,14L1,5.3L1.015,5.29L1.004,5.273L1.028,5.238L1.011,5.226L1.021,5.18L0.951,5.166L0.7873,4.355zM14.05,5.166L13.98,5.18L13.99,5.226L13.97,5.238L14,5.273L13.98,5.29L14,5.3L14,9.959L14.01,10L14,10.27L14,11L15,11L15,5.231L15,5.181L14.99,5.132L14.96,4.982L14.94,4.884L14.88,4.801L14.8,4.678L14.75,4.598L14.67,4.543L14.54,4.461L14.46,4.405L14.36,4.385L14.21,4.355zz" fill="#6D6E71"/>
      <path d="M9.453,9.089L9.246,9.354L9.254,9.691L9.359,9.856L9.483,9.986L10.08,9.373L10.11,9.351L10.2,9.289L10.08,9.165L9.781,9.014zM5.081,9.1L4.92,9.212L0.3816,13.91L0.243,14.22L0.3303,14.54L0.6039,14.74L0.9398,14.72L1.101,14.61L5.639,9.906L5.778,9.6L5.69,9.275L5.417,9.078zz" fill="#6D6E71"/>
      <path d="M7.094,0.5451L6.694,0.6805L5.737,1.221L2.834,3.316L0.6447,4.937L2.416,6.767L3.935,8.28L5.256,9.504L9.721,9.5L10.98,8.297L12.52,6.767L14.36,4.893L11.95,3.13L9.257,1.221L8.267,0.6805L7.858,0.5451L7.475,0.5zz" fill-rule="evenodd" fill="#FFFFFF"/>
      <path d="M7.036,0.04863L6.935,0.07129L6.534,0.2066L6.447,0.2451L5.491,0.7863L5.444,0.816L2.541,2.911L2.537,2.914L0.3473,4.535L0.16,4.815L0.1924,5.15L0.2855,5.285L2.057,7.115L2.063,7.121L3.582,8.635L3.595,8.647L4.917,9.871L5.226,10L5.257,10L9.47,10L10.08,9.373L10.11,9.351L10.51,9.091L10.97,9.002L11.33,8.659L11.34,8.651L12.87,7.121L12.88,7.117L14.71,5.243L14.85,4.938L14.77,4.612L14.65,4.49L12.25,2.727L12.24,2.722L9.546,0.8135L9.497,0.7828L8.507,0.2416L8.424,0.2057L8.015,0.07031L7.916,0.04844L7.533,0.003516L7.416,0.003516zM7.748,1.036L8.067,1.141L8.991,1.646L11.65,3.533L13.59,4.955L12.16,6.413L12.16,6.416L12.16,6.417L10.64,7.935L10.64,7.938L9.521,9L5.453,9.004L4.28,7.918L2.776,6.419L2.775,6.419L1.401,4.999L3.127,3.722L3.132,3.718L6.008,1.643L6.899,1.139L7.205,1.036L7.475,1.003zz" fill="#6D6E71"/>
    </g>
    <g id="overlay">
      <path d="M10.7712,15.9301c0.0478,0.0451,0.111,0.0701,0.1767,0.0699l1.9354,-0.0006c0.1039,-0.0003,0.1557,-0.1259,0.0823,-0.1994l-1.7219,-1.8h4.4913c0.1416,0,0.265,-0.0833,0.265,-0.2249v-0.5601v-0.502v-0.4391c0,-0.1416,-0.1148,-0.2563,-0.2563,-0.2563h-4.4913l1.7304,-1.8185c0.0732,-0.0737,0.0209,-0.1991,-0.0829,-0.1991h-1.9222c-0.0662,0,-0.1299,0.0256,-0.1776,0.0715c0,0,-1.9735,2.0193,-2.7414,2.7965c-0.0786,0.0795,-0.078,0.204,0.0013,0.2828C8.8265,13.9127,10.7712,15.9301,10.7712,15.9301z" fill-rule="evenodd" fill="#3E79B4"/>
    </g>
  </g>
</svg>
