<?xml version="1.0" encoding="UTF-8"?>
<!DOCTYPE svg PUBLIC "-//W3C//DTD SVG 1.1//EN" "http://www.w3.org/Graphics/SVG/1.1/DTD/svg11.dtd">
<svg version="1.1" id="Layer_1" xmlns="http://www.w3.org/2000/svg" xmlns:xlink="http://www.w3.org/1999/xlink" x="0px" y="0px" width="16px" height="16px" viewBox="0 0 16 16" enable-background="new 0 0 16 16" xml:space="preserve">
  <g id="main">
    <clipPath id="clip_mask">
      <path d="M6,11.5c0,-3.0327,2.4673,-5.5,5.5,-5.5c1.8588,0,3.5039,0.9278,4.5,2.3436V0H0v16h8.3436C6.9278,15.0039,6,13.3588,6,11.5z"/>
    </clipPath>
    <g id="icon" clip-path="url(#clip_mask)">
      <g>
        <g>
          <path d="M14.8934,10.7796c-1.0747,-1.0941,-2.8887,-3.4653,-2.8887,-5.2939c0,-1.728,-1.2192,-3.2012,-2.9304,-3.7707c0.0146,-0.0821,0.0238,-0.166,0.0238,-0.2521C9.0981,0.6549,8.4264,0,7.5979,0c-0.8285,0,-1.5002,0.6549,-1.5002,1.4628c0,0.0669,0.0062,0.1323,0.0151,0.1969c-1.8044,0.5239,-3.1092,2.0384,-3.1092,3.826c0,2.56,-1.7899,4.1205,-2.7943,5.3398c-1.0135,0.9943,5.3005,1.4347,7.3417,1.4347S15.9681,11.8737,14.8934,10.7796z" fill-rule="evenodd" fill="#787878"/>
        </g>
      </g>
      <path d="M9.933,12.99c0,1.2428,-1.0733,2.0528,-2.3161,2.0528c-1.2428,0,-2.2832,-0.8101,-2.2832,-2.0528C7.1374,13.1554,8.0258,13.1554,9.933,12.99z" fill-rule="evenodd" fill="#787878"/>
    </g>
    <g id="overlay">
      <path d="M11.5,7c-2.4853,0,-4.5,2.0147,-4.5,4.5c0,2.4853,2.0147,4.5,4.5,4.5s4.5,-2.0147,4.5,-4.5C16,9.0147,13.9853,7,11.5,7zM14,12h-2v2h-1v-2H9v-1h2V9h1v2h2V12z" fill-rule="evenodd" fill="#B4B4B4"/>
	  <polygon points="14,11 12,11 12,9 11,9 11,11 9,11 9,12 11,12 11,14 12,14 12,12 14,12" fill-rule="evenodd" fill="#FFFFFF" stroke-linejoin="miter"/>
    </g>
  </g>
</svg>
