<?xml version="1.0" encoding="UTF-8"?>
<!DOCTYPE svg PUBLIC "-//W3C//DTD SVG 1.1//EN" "http://www.w3.org/Graphics/SVG/1.1/DTD/svg11.dtd">
<svg version="1.1" id="Layer_1" xmlns="http://www.w3.org/2000/svg" xmlns:xlink="http://www.w3.org/1999/xlink" x="0px" y="0px" width="16px" height="16px" viewBox="0 0 16 16" enable-background="new 0 0 16 16" xml:space="preserve">
  <g id="main">
    <clipPath id="clip_mask">
      <path d="M10.2965,15.1164l0.1191,-0.1164H8.2563C7.5636,15,7,14.4188,7,13.7261v-1.5012C7,11.538,7.5557,11,8.265,11h2.1508l-0.1003,-0.1049c-0.3107,-0.3201,-0.4014,-0.7909,-0.2306,-1.2041c0.1727,-0.4181,0.5767,-0.6891,1.0291,-0.6904L13.0519,9c0.323,0,0.6292,0.1217,0.8634,0.3427l0.0172,0.0162l0.0164,0.017c0.0151,0.0156,1.1799,1.2238,2.0512,2.1122V0H0v16h9.989C9.9551,15.6796,10.0633,15.358,10.2965,15.1164z" fill-rule="evenodd"/>
    </clipPath>
    <g id="icon" clip-path="url(#clip_mask)">
      <path d="M0.886,4.845h13.228c0.213,0,0.386,0.173,0.386,0.386v8.883c0,0.213,-0.173,0.386,-0.386,0.386H0.886C0.673,14.5,0.5,14.327,0.5,14.114V5.231C0.5,5.018,0.673,4.845,0.886,4.845z" fill-rule="evenodd" fill="#FFFFFF"/>
      <path d="M14.114,4.845c0.213,0,0.386,0.173,0.386,0.386v8.883c0,0.213,-0.173,0.386,-0.386,0.386H0.886C0.673,14.5,0.5,14.327,0.5,14.114V5.231c0,-0.213,0.173,-0.386,0.386,-0.386" fill-rule="evenodd" fill="none" stroke="#6D6E71" stroke-width="1" stroke-miterlimit="1"/>
      <path d="M14.355,4.893c0,0,-3.354,3.461,-4.634,4.607c-0.229,0,-4.124,0.004,-4.464,0.004C3.832,8.295,0.645,4.937,0.645,4.937s4.141,-3.083,5.092,-3.715c1.475,-0.962,1.986,-0.962,3.52,0C9.642,1.416,14.355,4.893,14.355,4.893z" fill-rule="evenodd" fill="#FFFFFF" stroke="#6D6E71" stroke-width="1" stroke-linecap="round" stroke-miterlimit="1" stroke-linejoin="round"/>
    </g>
    <g id="overlay">
      <path d="M13.2288,10.0699c-0.0478,-0.0451,-0.111,-0.0701,-0.1767,-0.0699l-1.9354,0.0006c-0.1039,0.0003,-0.1557,0.1259,-0.0823,0.1994l1.7219,1.8H8.265c-0.1416,0,-0.265,0.0833,-0.265,0.2249v0.5601v0.502v0.4391c0,0.1416,0.1148,0.2563,0.2563,0.2563h4.4912l-1.7304,1.8185c-0.0732,0.0737,-0.0209,0.1991,0.0829,0.1991h1.9222c0.0662,0,0.1299,-0.0256,0.1776,-0.0715c0,0,1.9735,-2.0193,2.7414,-2.7965c0.0786,-0.0795,0.078,-0.204,-0.0013,-0.2828C15.1735,12.0873,13.2288,10.0699,13.2288,10.0699z" fill-rule="evenodd" fill="#3E78B3"/>
    </g>
  </g>
</svg>
