<?xml version="1.0" encoding="utf-8"?>
<!-- Generator: Adobe Illustrator 19.0.0, SVG Export Plug-In . SVG Version: 6.00 Build 0)  -->
<svg version="1.1" id="Layer_1" xmlns="http://www.w3.org/2000/svg" xmlns:xlink="http://www.w3.org/1999/xlink" x="0px" y="0px"
	 viewBox="-289 412.9 16 16" style="enable-background:new -289 412.9 16 16;" xml:space="preserve">
<style type="text/css">
	.st0{clip-path:url(#SVGID_2_);}
	.st1{fill:#FFFFFF;}
	.st2{fill:none;stroke:#6D6E71;stroke-miterlimit:1;}
	.st3{fill:#FFFFFF;stroke:#6D6E71;stroke-linecap:round;stroke-linejoin:round;stroke-miterlimit:1;}
	.st4{fill:#3E78B3;}
</style>
<g id="main">
	<g>
		<defs>
			<path id="SVGID_1_" d="M-280,412.9h-3c0,0.3-0.1,0.6-0.3,0.9l-0.1,0.1h2.2c0.7,0,1.3,0.6,1.3,1.3v1.5c0,0.7-0.6,1.2-1.3,1.2h-2.2
				l0.1,0.1c0.3,0.3,0.4,0.8,0.2,1.2c-0.2,0.4-0.6,0.7-1,0.7l-0.4,0h-1.6c-0.3,0-0.6-0.1-0.9-0.3l0,0l0,0c0,0-1.2-1.2-2.1-2.1v2.5v9
				h10c0-0.3,0.1-0.6,0.3-0.9l0.1-0.1h-2.2c-0.7,0-1.3-0.6-1.3-1.3v-1.5c0-0.7,0.6-1.2,1.3-1.2h2.2l-0.1-0.1
				c-0.3-0.3-0.4-0.8-0.2-1.2c0.2-0.4,0.6-0.7,1-0.7l1.9,0c0.3,0,0.6,0.1,0.9,0.3l0,0l0,0c0,0,1.2,1.2,2.1,2.1v-11.5H-280z"/>
		</defs>
		<clipPath id="SVGID_2_">
			<use xlink:href="#SVGID_1_"  style="overflow:visible;"/>
		</clipPath>
		<g id="icon" class="st0">
			<path class="st1" d="M-288.1,417.7h13.2c0.2,0,0.4,0.2,0.4,0.4v8.9c0,0.2-0.2,0.4-0.4,0.4h-13.2c-0.2,0-0.4-0.2-0.4-0.4v-8.9
				C-288.5,417.9-288.3,417.7-288.1,417.7z"/>
			<path class="st2" d="M-274.9,417.7c0.2,0,0.4,0.2,0.4,0.4v8.9c0,0.2-0.2,0.4-0.4,0.4h-13.2c-0.2,0-0.4-0.2-0.4-0.4v-8.9
				c0-0.2,0.2-0.4,0.4-0.4"/>
			<path class="st3" d="M-274.6,417.8c0,0-3.4,3.5-4.6,4.6c-0.2,0-4.1,0-4.5,0c-1.4-1.2-4.6-4.6-4.6-4.6s4.1-3.1,5.1-3.7
				c1.5-1,2-1,3.5,0C-279.4,414.3-274.6,417.8-274.6,417.8z"/>
		</g>
	</g>
	<g id="overlay">
		<path class="st4" d="M-275.8,423c0,0-0.1-0.1-0.2-0.1l-1.9,0c-0.1,0-0.2,0.1-0.1,0.2l1.7,1.8h-4.5c-0.1,0-0.3,0.1-0.3,0.2v0.6v0.5
			v0.4c0,0.1,0.1,0.3,0.3,0.3h4.5l-1.7,1.8c-0.1,0.1,0,0.2,0.1,0.2h1.9c0.1,0,0.1,0,0.2-0.1c0,0,2-2,2.7-2.8c0.1-0.1,0.1-0.2,0-0.3
			C-273.8,425-275.8,423-275.8,423z"/>
	</g>
	<g id="overlay_1_">
		<path class="st4" d="M-286.2,418.8c0,0,0.1,0.1,0.2,0.1l1.9,0c0.1,0,0.2-0.1,0.1-0.2l-1.7-1.8h4.5c0.1,0,0.3-0.1,0.3-0.2v-0.6
			v-0.5v-0.4c0-0.1-0.1-0.3-0.3-0.3h-4.5l1.7-1.8c0.1-0.1,0-0.2-0.1-0.2h-1.9c-0.1,0-0.1,0-0.2,0.1c0,0-2,2-2.7,2.8
			c-0.1,0.1-0.1,0.2,0,0.3C-288.2,416.8-286.2,418.8-286.2,418.8z"/>
	</g>
</g>
</svg>
