<?xml version="1.0" encoding="UTF-8"?>
<!DOCTYPE svg PUBLIC "-//W3C//DTD SVG 1.1//EN" "http://www.w3.org/Graphics/SVG/1.1/DTD/svg11.dtd">
<svg version="1.1" id="Layer_1" xmlns="http://www.w3.org/2000/svg" xmlns:xlink="http://www.w3.org/1999/xlink" x="0px" y="0px" width="16px" height="16px" viewBox="0 0 16 16" enable-background="new 0 0 16 16" xml:space="preserve">
  <g id="icon">
    <path d="M14.869,2.693c-0.086,-0.349,-0.4,-0.593,-0.763,-0.593c-0.027,0,-0.055,0.001,-0.082,0.004c-0.265,0.027,-0.532,0.041,-0.796,0.041c-2.799,0,-4.69,-1.491,-5.203,-1.948C7.882,0.07,7.697,0,7.504,0c-0.172,0,-0.342,0.057,-0.479,0.162c-0.777,0.592,-2.862,1.967,-5.431,1.968c-0.206,0,-0.414,-0.009,-0.617,-0.027c-0.023,-0.002,-0.047,-0.003,-0.07,-0.003c-0.365,0,-0.679,0.246,-0.765,0.599c-0.381,1.571,-0.104,6.765,2.166,9.7c1.52,1.965,3.169,3.137,5.04,3.581c0.059,0.014,0.12,0.021,0.181,0.021c0.061,0,0.122,-0.007,0.182,-0.021c2.338,-0.557,3.859,-2.206,4.922,-3.581C14.917,9.448,15.241,4.192,14.869,2.693zM10.875,9.932c0.096,0.096,0.096,0.251,0,0.347l-0.788,0.785c-0.096,0.096,-0.252,0.096,-0.349,0L7.527,8.86l-2.212,2.204c-0.096,0.096,-0.252,0.096,-0.349,0l-0.788,-0.785c-0.096,-0.096,-0.096,-0.251,0,-0.347L6.39,7.728L4.178,5.524c-0.096,-0.096,-0.096,-0.251,0,-0.347l0.788,-0.785c0.096,-0.096,0.252,-0.096,0.349,0l2.212,2.204l2.212,-2.204c0.096,-0.096,0.252,-0.096,0.349,0l0.788,0.785c0.096,0.096,0.096,0.251,0,0.347L8.663,7.728L10.875,9.932z" fill="#CD4C32"/>
    <path d="M8.663,7.728l2.212,-2.204c0.096,-0.096,0.096,-0.251,0,-0.347l-0.788,-0.785c-0.096,-0.096,-0.252,-0.096,-0.349,0L7.527,6.596L5.315,4.392c-0.096,-0.096,-0.252,-0.096,-0.349,0l-0.788,0.785c-0.096,0.096,-0.096,0.251,0,0.347L6.39,7.728L4.178,9.932c-0.096,0.096,-0.096,0.251,0,0.347l0.788,0.785c0.096,0.096,0.252,0.096,0.349,0L7.527,8.86l2.212,2.204c0.096,0.096,0.252,0.096,0.349,0l0.788,-0.785c0.096,-0.096,0.096,-0.251,0,-0.347L8.663,7.728z" fill="#FFFFFF"/>
  </g>
</svg>
