<?xml version="1.0" encoding="UTF-8"?>
<!DOCTYPE svg PUBLIC "-//W3C//DTD SVG 1.1//EN" "http://www.w3.org/Graphics/SVG/1.1/DTD/svg11.dtd">
<svg version="1.1" id="Layer_1" xmlns="http://www.w3.org/2000/svg" xmlns:xlink="http://www.w3.org/1999/xlink" x="0px" y="0px" width="16px" height="16px" viewBox="0 0 16 16" enable-background="new 0 0 16 16" xml:space="preserve">
  <g id="icon">
    <path d="M14.869,2.693c-0.086,-0.349,-0.4,-0.593,-0.763,-0.593c-0.027,0,-0.055,0.001,-0.082,0.004c-0.265,0.027,-0.532,0.041,-0.796,0.041c-2.799,0,-4.69,-1.491,-5.203,-1.948C7.882,0.07,7.697,0,7.504,0c-0.172,0,-0.342,0.057,-0.479,0.162c-0.777,0.592,-2.862,1.967,-5.431,1.968c-0.206,0,-0.414,-0.009,-0.617,-0.027c-0.023,-0.002,-0.047,-0.003,-0.07,-0.003c-0.365,0,-0.679,0.246,-0.765,0.599c-0.381,1.571,-0.104,6.765,2.166,9.7c1.52,1.965,3.169,3.137,5.04,3.581c0.059,0.014,0.12,0.021,0.181,0.021c0.061,0,0.122,-0.007,0.182,-0.021c2.338,-0.557,3.859,-2.206,4.922,-3.581C14.917,9.448,15.241,4.192,14.869,2.693zM12.216,5.851l-5.292,5.237c-0.048,0.047,-0.107,0.068,-0.169,0.068c-0.063,0,-0.119,-0.03,-0.166,-0.077l-1.036,-1.032c-0.016,-0.016,-0.029,-0.021,-0.04,-0.04L3.353,7.841c-0.094,-0.095,-0.081,-0.236,0.013,-0.331l0.776,-0.773c0.046,-0.046,0.096,-0.084,0.161,-0.084c0.065,0,0.115,0.014,0.16,0.06l2.258,2.275l4.335,-4.291c0.095,-0.095,0.249,-0.093,0.344,0.001l0.813,0.81c0.046,0.046,0.073,0.106,0.073,0.171C12.286,5.745,12.262,5.805,12.216,5.851z" fill="#4EA17E"/>
    <path d="M12.213,5.509L11.4,4.7c-0.095,-0.095,-0.249,-0.096,-0.344,-0.001L6.721,8.989L4.463,6.715c-0.046,-0.046,-0.095,-0.06,-0.16,-0.06c-0.065,0,-0.115,0.038,-0.161,0.084l-0.776,0.773c-0.095,0.095,-0.108,0.235,-0.013,0.331l2.159,2.164c0.011,0.019,0.024,0.024,0.04,0.04l1.036,1.032c0.048,0.047,0.104,0.077,0.166,0.077c0.062,0,0.121,-0.02,0.169,-0.068l5.292,-5.237c0.046,-0.046,0.07,-0.106,0.07,-0.171C12.286,5.615,12.259,5.555,12.213,5.509z" fill="#FFFFFF"/>
  </g>
</svg>
