<?xml version="1.0" encoding="UTF-8"?>
<!DOCTYPE svg PUBLIC "-//W3C//DTD SVG 1.1//EN" "http://www.w3.org/Graphics/SVG/1.1/DTD/svg11.dtd">
<svg version="1.1" id="Layer_1" xmlns="http://www.w3.org/2000/svg" xmlns:xlink="http://www.w3.org/1999/xlink" x="0px" y="0px" width="16px" height="16px" viewBox="0 0 16 16" enable-background="new 0 0 16 16" xml:space="preserve">
  <g id="icon">
    <path d="M9.5,9.429l0,-6.877c0,-0.95,-0.657,-1.795,-1.593,-1.979C6.624,0.322,5.5,1.292,5.5,2.524v6.953c-0.987,0.746,-1.549,2.021,-1.256,3.401c0.279,1.315,1.354,2.342,2.685,2.569c2.142,0.366,3.904,-1.252,3.904,-3.3C10.833,11.028,10.348,10.037,9.5,9.429z" fill="#FFFFFF" stroke="#6D6E71" stroke-width="1" stroke-miterlimit="10"/>
    <path d="M8.3,10.315V6H6.7v4.315c-0.763,0.313,-1.3,1.06,-1.3,1.933c0,1.155,0.94,2.091,2.1,2.091s2.1,-0.936,2.1,-2.091C9.6,11.375,9.063,10.628,8.3,10.315z" fill="#EAB765"/>
  </g>
</svg>
