<?xml version="1.0" encoding="UTF-8"?>
<!DOCTYPE svg PUBLIC "-//W3C//DTD SVG 1.1//EN" "http://www.w3.org/Graphics/SVG/1.1/DTD/svg11.dtd">
<svg version="1.1" id="Layer_1" xmlns="http://www.w3.org/2000/svg" xmlns:xlink="http://www.w3.org/1999/xlink" x="0px" y="0px" width="16px" height="16px" viewBox="0 0 16 16" enable-background="new 0 0 16 16" xml:space="preserve">
  <g id="main">
    <g id="icon">
      <path d="M5.99,0.5986L5.582,0.7551L5.222,0.9924L4.923,1.299L4.696,1.664L4.551,2.076L4.5,2.524L4.5,8.477L4.151,8.781L3.846,9.129L3.592,9.517L3.392,9.94L3.252,10.39L3.178,10.87L3.173,11.37L3.244,11.88L3.385,12.36L3.594,12.8L3.865,13.21L4.192,13.57L4.568,13.88L4.987,14.13L5.443,14.33L5.929,14.45L6.712,14.49L6.881,14.47L6.641,14.07L6.368,13.48L6.167,12.85L6.043,12.19L6,11.5L6.029,10.94L6.112,10.39L6.248,9.866L6.433,9.361L6.665,8.88L6.941,8.427L7.257,8.004L7.613,7.613L8.004,7.257L8.427,6.941L8.5,6.896L8.5,2.552L8.47,2.202L8.383,1.868L8.243,1.557L8.054,1.275L7.822,1.029L7.551,0.8262L7.244,0.6719L6.907,0.573L6.435,0.5342zz" fill="#FFFFFF"/>
      <path d="M6.364,0.03945L5.918,0.1039L5.863,0.1119L5.811,0.1318L5.403,0.2883L5.352,0.3078L5.306,0.3379L4.947,0.5752L4.902,0.6049L4.864,0.6434L4.565,0.95L4.528,0.9887L4.499,1.035L4.271,1.4L4.242,1.446L4.224,1.498L4.079,1.91L4.06,1.964L4.054,2.02L4.003,2.468L4,2.496L4,2.524L4,8.249L3.823,8.403L3.797,8.426L3.774,8.452L3.47,8.8L3.447,8.826L3.428,8.855L3.174,9.243L3.154,9.272L3.139,9.304L2.94,9.726L2.925,9.758L2.914,9.792L2.775,10.24L2.764,10.28L2.758,10.32L2.684,10.79L2.678,10.83L2.678,10.86L2.673,11.36L2.673,11.4L2.678,11.43L2.749,11.95L2.754,11.98L2.764,12.02L2.905,12.5L2.916,12.53L2.932,12.57L3.141,13.01L3.157,13.05L3.178,13.08L3.449,13.49L3.47,13.52L3.494,13.54L3.821,13.91L3.846,13.93L3.874,13.96L4.25,14.27L4.278,14.29L4.309,14.31L4.728,14.56L4.76,14.58L4.794,14.6L5.25,14.79L5.285,14.8L5.321,14.81L5.808,14.93L5.853,14.94L5.899,14.95L6.682,14.99L6.738,15L6.793,14.99L7.208,14.92L6.98,14.63L6.641,14.07L6.601,13.99L6.005,13.95L5.601,13.85L5.214,13.69L4.858,13.47L4.538,13.21L4.261,12.9L4.031,12.56L3.854,12.18L3.734,11.77L3.674,11.33L3.677,10.91L3.741,10.5L3.859,10.12L4.029,9.762L4.245,9.433L4.505,9.135L4.828,8.854L5,8.705L5,8.477L5,2.553L5.041,2.188L5.149,1.882L5.319,1.609L5.543,1.38L5.812,1.203L6.117,1.086L6.451,1.037L6.815,1.067L7.06,1.139L7.286,1.253L7.489,1.405L7.662,1.588L7.804,1.799L7.91,2.035L7.975,2.287L8,2.574L8,7.261L8.004,7.257L8.427,6.941L8.88,6.665L9,6.607L9,2.552L9,2.531L8.998,2.509L8.968,2.159L8.964,2.117L8.954,2.075L8.866,1.741L8.856,1.701L8.839,1.663L8.699,1.352L8.682,1.314L8.658,1.279L8.47,0.9975L8.447,0.9625L8.418,0.9318L8.186,0.6861L8.156,0.6549L8.122,0.6293L7.85,0.426L7.815,0.3994L7.776,0.3797L7.469,0.2254L7.429,0.2049L7.385,0.1922L7.048,0.09316L6.999,0.07891L6.948,0.07461L6.476,0.03594L6.42,0.03125zz" fill="#6D6E71"/>
      <path d="M5.7,9.315L5.175,9.626L4.764,10.07L4.496,10.62L4.4,11.25L4.443,11.67L4.565,12.06L4.759,12.42L5.015,12.73L5.326,12.98L5.682,13.17L6.077,13.3L6.318,13.32L6.167,12.85L6.043,12.19L6,11.5L6.029,10.94L6.112,10.39L6.248,9.866L6.433,9.361L6.665,8.88L6.941,8.427L7.257,8.004L7.3,7.957L7.3,5L5.7,5zz" fill="#3E79B4"/>
    </g>
    <g id="overlay">
      <path d="M11.5,7c-2.4853,0,-4.5,2.0147,-4.5,4.5c0,2.4853,2.0147,4.5,4.5,4.5s4.5,-2.0147,4.5,-4.5C16,9.0147,13.9853,7,11.5,7zM12,14.6427c0,0.0869,-0.0704,0.1573,-0.1573,0.1573h-0.7853c-0.0869,0,-0.1573,-0.0704,-0.1573,-0.1573v-0.7853c0,-0.0869,0.0704,-0.1573,0.1573,-0.1573h0.7853c0.0869,0,0.1573,0.0704,0.1573,0.1573V14.6427zM13.5629,10.7257c-0.0301,0.1302,-0.0831,0.2602,-0.1574,0.3863c-0.0724,0.1226,-0.1714,0.2488,-0.294,0.3751c-0.116,0.1194,-0.2638,0.254,-0.438,0.3991c-0.1785,0.1438,-0.3098,0.2555,-0.4012,0.3413c-0.0875,0.0822,-0.1494,0.1604,-0.1894,0.2374c-0.019,0.0367,-0.0377,0.0593,-0.0542,0.0788l-0.0186,0.0231l-0.003,0.0312c-0.0027,0.0261,-0.0057,0.0472,-0.0124,0.07l-0.0039,0.0836c0,0.0934,-0.0813,0.1484,-0.1573,0.1484h-0.7263c-0.076,0,-0.1573,-0.055,-0.1573,-0.1484c0,-0.1487,0.0033,-0.1819,0.021,-0.2444c0.0049,-0.0173,0.0096,-0.0337,0.0168,-0.0802c0.0253,-0.1658,0.0678,-0.2551,0.1217,-0.3683l0.0153,-0.0321c0.0521,-0.1105,0.1194,-0.172,0.1845,-0.2316c0.0304,-0.0278,0.0591,-0.0542,0.0895,-0.0871c0.1078,-0.1168,0.2488,-0.2569,0.4187,-0.4161c0.1203,-0.1119,0.2292,-0.2077,0.3247,-0.2856c0.0814,-0.0685,0.1507,-0.1362,0.2059,-0.2013c0.0495,-0.0585,0.0855,-0.1194,0.1098,-0.186c0.0241,-0.0658,0.0363,-0.1512,0.0363,-0.2536c0,-0.1281,-0.0235,-0.2426,-0.0719,-0.3497c-0.049,-0.1084,-0.1145,-0.1995,-0.2001,-0.2778c-0.0511,-0.0468,-0.1135,-0.0706,-0.2101,-0.1032c-0.0233,-0.0079,-0.0472,-0.0183,-0.0717,-0.0276l-0.0265,-0.0128c-0.1265,-0.0475,-0.261,-0.0768,-0.3995,-0.0768c-0.6045,0,-0.9077,0.258,-1.0141,0.8876c-0.0145,0.0858,-0.0926,0.0949,-0.1551,0.0949h-0.798c-0.0739,0,-0.1012,0.0012,-0.1153,-0.014c-0.0329,-0.0354,-0.0445,-0.0431,-0.0416,-0.0824c0.0201,-0.2701,0.0866,-0.5198,0.1977,-0.7424c0.1113,-0.223,0.2627,-0.4167,0.45,-0.5756c0.1857,-0.1576,0.4061,-0.281,0.655,-0.3668c0.247,-0.0851,0.5193,-0.1282,0.8094,-0.1282c0.3134,0,0.6013,0.043,0.8558,0.1277c0.2566,0.0855,0.4796,0.2053,0.6628,0.3563c0.186,0.1534,0.3316,0.3381,0.4329,0.549c0.1016,0.2118,0.1531,0.4449,0.1531,0.6928C13.6067,10.4615,13.592,10.5992,13.5629,10.7257z" fill-rule="evenodd" fill="#E9B665"/>
    </g>
  </g>
</svg>
