<?xml version="1.0" encoding="UTF-8"?>
<!DOCTYPE svg PUBLIC "-//W3C//DTD SVG 1.1//EN" "http://www.w3.org/Graphics/SVG/1.1/DTD/svg11.dtd">
<svg version="1.1" id="Layer_1" xmlns="http://www.w3.org/2000/svg" xmlns:xlink="http://www.w3.org/1999/xlink" x="0px" y="0px" width="16px" height="16px" viewBox="0 0 16 16" enable-background="new 0 0 16 16" xml:space="preserve">
  <g id="main">
    <clipPath id="clip_mask">
      <path d="M7.9571,15.5258c-0.2133,-0.3689,-0.2163,-0.829,-0.008,-1.2008l1.1611,-2.0717c-0.902,-0.8507,-1.4658,-2.0562,-1.4658,-3.3909c0,-2.5706,2.0913,-4.6619,4.6619,-4.6619c1.5026,0,2.8406,0.7153,3.6937,1.8224V0H0v16h8.4644C8.256,15.8951,8.0769,15.7331,7.9571,15.5258z"/>
    </clipPath>
    <g id="icon" clip-path="url(#clip_mask)">
      <path d="M0.884,2.5h13.231c0.212,0,0.384,0.179,0.384,0.4v9.197c0,0.221,-0.172,0.4,-0.384,0.4H0.884c-0.212,0,-0.384,-0.179,-0.384,-0.4V2.9C0.5,2.679,0.672,2.5,0.884,2.5z" fill-rule="evenodd" fill="#FFFFFF" stroke="#6D6E71" stroke-width="1" stroke-miterlimit="1"/>
      <path d="M14.356,2.65c0,0,-4.691,4.591,-5.074,4.813c-1.527,1.098,-2.036,1.098,-3.504,0C4.831,6.741,0.709,2.65,0.709,2.65" fill-rule="evenodd" fill="none" stroke="#6D6E71" stroke-width="1" stroke-miterlimit="1"/>
    </g>
    <g id="overlay">
      <path d="M12.3063,5.2005c2.0224,0,3.6619,1.6395,3.6619,3.6619s-1.6395,3.6619,-3.6619,3.6619s-3.6619,-1.6395,-3.6619,-3.6619S10.2839,5.2005,12.3063,5.2005zM14.52,12.5493c-0.5746,0.3474,-1.2382,0.5621,-1.9484,0.6029l0.7532,2.6814c0.0439,0.1562,0.2389,0.2085,0.355,0.0952l0.8034,-0.7835l1.1221,-0.0133c0.1622,-0.0019,0.2632,-0.1767,0.1839,-0.3182L14.52,12.5493zM10.1005,12.5316l-1.2791,2.2823c-0.0793,0.1415,0.0217,0.3163,0.1839,0.3182l1.1221,0.0133l0.8034,0.7835c0.1161,0.1132,0.3111,0.0609,0.355,-0.0952l0.754,-2.6842C11.332,13.1025,10.6715,12.883,10.1005,12.5316z" fill="#3E78B3"/>
    </g>
  </g>
</svg>
