<?xml version="1.0" encoding="utf-8"?>
<!-- Generator: Adobe Illustrator 22.0.1, SVG Export Plug-In . SVG Version: 6.00 Build 0)  -->
<svg version="1.1" id="Layer_1" xmlns="http://www.w3.org/2000/svg" xmlns:xlink="http://www.w3.org/1999/xlink" x="0px" y="0px"
	 viewBox="0 0 16 16" style="enable-background:new 0 0 16 16;" xml:space="preserve">
<style type="text/css">
	.st0{fill:#B4B4B5;}
	.st1{fill:#EAB765;}
	.st2{fill:#6D6E71;}
</style>
<g id="main">
	<g id="overlay">
		<path class="st0" d="M9.5,8.5V7.2c0-1.1-0.9-2.1-2-2.1s-2,1-2,2.1v1.3h-1V7.2c0-0.8,0.3-1.6,0.9-2.2C6,4.4,6.7,4,7.5,4
			C8.3,4,9,4.4,9.6,5c0.6,0.6,0.9,1.4,0.9,2.2v1.3H9.5z"/>
		<path class="st1" d="M10.8,8H4.2C4.1,8,4,8.1,4,8.3v4.4C4,12.8,4.1,13,4.2,13h6.6c0.1,0,0.2-0.2,0.2-0.3V8.3C11,8.1,10.9,8,10.8,8
			z M7.9,10.4l0.1,1.3c0,0.2-0.3,0.3-0.5,0.3S7,11.9,7,11.7l0.2-1.3C7,10.3,6.8,10.1,6.8,9.8c0-0.4,0.3-0.7,0.7-0.7
			c0.4,0,0.7,0.3,0.7,0.7C8.3,10.1,8.1,10.3,7.9,10.4z"/>
		<path class="st2" d="M8.3,9.8c0-0.4-0.3-0.7-0.7-0.7S6.8,9.4,6.8,9.8c0,0.3,0.2,0.5,0.4,0.6L7,11.7C7,11.9,7.3,12,7.5,12
			s0.5-0.1,0.5-0.3l-0.1-1.3C8.1,10.3,8.3,10.1,8.3,9.8z"/>
	</g>
</g>
</svg>
