<?xml version="1.0" encoding="UTF-8"?>
<!DOCTYPE svg PUBLIC "-//W3C//DTD SVG 1.1//EN" "http://www.w3.org/Graphics/SVG/1.1/DTD/svg11.dtd">
<svg version="1.1" id="Layer_1" xmlns="http://www.w3.org/2000/svg" xmlns:xlink="http://www.w3.org/1999/xlink" x="0px" y="0px" width="16px" height="16px" viewBox="0 0 16 16" enable-background="new 0 0 16 16" xml:space="preserve">
  <g id="main">
    <g id="icon">
      <path d="M10.24,3.031L10.12,3.117L10.03,3.244L10,3.4L10,6.743L10.75,6.337L11.6,6.08L12.49,5.993L13.38,6.08L14,6.27L14,3.4L13.97,3.244L13.88,3.117L13.76,3.031L13.6,3L10.4,3zz" fill="#CD4C32"/>
      <path d="M0.2443,6.031L0.1172,6.117L0.03145,6.244L0,6.4L0,13.6L0.03145,13.76L0.1172,13.88L0.2443,13.97L0.4,14L3.6,14L3.756,13.97L3.883,13.88L3.969,13.76L4,13.6L4,6.4L3.969,6.244L3.883,6.117L3.756,6.031L3.6,6L0.4,6zz" fill="#3E79B4"/>
      <path d="M5.244,0.03145L5.117,0.1172L5.031,0.2443L5,0.4L5,13.6L5.031,13.76L5.117,13.88L5.244,13.97L5.4,14L6.492,14L8.282,12.22L8.08,11.59L7.973,10.94L7.962,10.29L8.044,9.645L8.218,9.015L8.484,8.413L8.84,7.847L9,7.66L9,0.4L8.969,0.2443L8.883,0.1172L8.756,0.03145L8.6,0L5.4,0zz" fill="#EAB765"/>
    </g>
    <g id="overlay">
      <path d="M14.9717,8.0274c-1.373,-1.3817,-3.6012,-1.3795,-4.9769,0.0049c-1.1858,1.1934,-1.3501,3.0238,-0.4937,4.3914l-2.3642,2.3449c-0.1531,0.1541,-0.1531,0.4039,0,0.5579l0.5544,0.5579c0.1531,0.1541,0.4013,0.1541,0.5544,0l2.3658,-2.3465c1.3581,0.8559,3.1719,0.6889,4.3554,-0.5021C16.3425,11.6515,16.3447,9.4091,14.9717,8.0274zM14.108,12.1913c-0.9067,0.9125,-2.3767,0.9125,-3.2834,0c-0.9067,-0.9124,-0.9067,-2.3918,0,-3.3043c0.9067,-0.9125,2.3767,-0.9125,3.2834,0C15.0147,9.7995,15.0147,11.2789,14.108,12.1913z" fill-rule="evenodd" fill="#3E79B4"/>
    </g>
  </g>
</svg>
