<?xml version="1.0" encoding="utf-8"?>
<!-- Generator: Adobe Illustrator 22.0.1, SVG Export Plug-In . SVG Version: 6.00 Build 0)  -->
<svg version="1.1" id="Layer_1" xmlns="http://www.w3.org/2000/svg" xmlns:xlink="http://www.w3.org/1999/xlink" x="0px" y="0px"
	 viewBox="0 0 16 16" style="enable-background:new 0 0 16 16;" xml:space="preserve">
<style type="text/css">
	.st0{fill:#B4B4B4;}
</style>
<g id="main">
	<g id="overlay">
		<path class="st0" d="M9.6,5C9,4.4,8.3,4,7.5,4C6.7,4,6,4.4,5.4,4.9c0,0.1,0,0.1,0,0.1L6,5.7c0,0,0.1,0,0.1,0
			C6.5,5.3,7,5.1,7.5,5.1c1.1,0,2,1,2,2.1v1.3h1V7.2C10.5,6.3,10.2,5.5,9.6,5z"/>
		<path class="st0" d="M10.8,8H4.2C4.1,8,4,8.1,4,8.3v4.4C4,12.8,4.1,13,4.2,13h6.6c0.1,0,0.2-0.2,0.2-0.3V8.3C11,8.1,10.9,8,10.8,8
			z M7.9,10.4l0.1,1.3c0,0.2-0.3,0.3-0.5,0.3S7,11.9,7,11.7l0.2-1.3C7,10.3,6.8,10.1,6.8,9.8c0-0.4,0.3-0.7,0.7-0.7s0.7,0.3,0.7,0.7
			C8.3,10.1,8.1,10.3,7.9,10.4z"/>
	</g>
</g>
</svg>
