<?xml version="1.0" encoding="UTF-8"?>
<!DOCTYPE svg PUBLIC "-//W3C//DTD SVG 1.1//EN" "http://www.w3.org/Graphics/SVG/1.1/DTD/svg11.dtd">
<svg version="1.1" id="Layer_1" xmlns="http://www.w3.org/2000/svg" xmlns:xlink="http://www.w3.org/1999/xlink" x="0px" y="0px" width="16px" height="16px" viewBox="0 0 16 16" enable-background="new 0 0 16 16" xml:space="preserve">
  <g id="icon">
    <path d="M8.0459,0.2c1.3633,-0.0033,1.6539,4.7234,2.3356,5.3306c0.6817,0.6072,5.3817,-0.5128,5.609,0.6679c0.2272,1.1807,-3.6576,3.1101,-4.0471,4.0546c-0.3895,0.9445,1.8241,4.9427,1.0126,5.6511c-0.8115,0.7084,-3.9038,-2.7463,-4.91,-2.7463s-4.0337,3.2523,-4.8452,2.6451s1.2074,-4.7317,0.9477,-5.6087c-0.2597,-0.8771,-4.2943,-2.8488,-4.047,-3.9958s4.7649,-0.027,5.5115,-0.6004C6.3595,5.0246,6.9098,0.2337,8.0459,0.2" fill-rule="evenodd" fill="#EAB765"/>
  </g>
</svg>
