<svg version="1.2" xmlns="http://www.w3.org/2000/svg" viewBox="0 0 21 24" width="21" height="24">
	<path id="Layer" fill-rule="evenodd" class="s0" d="m6 3h9v-2c0-0.4 0.3-0.8 0.7-0.8 0.5 0.1 0.8 0.4 0.8 0.8v2h1.5c1.7 0 3 1.3 3 3v15c0 1.7-1.3 3-3 3h-15c-1.7 0-3-1.3-3-3v-15c0-1.7 1.3-3 3-3h1.5v-2c0-0.4 0.3-0.8 0.7-0.8 0.5 0.1 0.8 0.4 0.8 0.8zm-4.5 3v1.3l18-0.1v-1.2c0-0.8-0.7-1.5-1.5-1.5h-15c-0.8 0-1.5 0.7-1.5 1.5zm0 15c0 0.8 0.7 1.5 1.5 1.5h15c0.8 0 1.5-0.7 1.5-1.5v-12.3l-18 0.1zm7-10.5c1.1 0 2 0.8 2 2v3.5c0 1.1-0.9 2-2 2h-3.5c-1.1 0-2-0.9-2-2v-3.5c0-1.2 0.9-2 2-2z" fill="#4B5563"/>
</svg>