<?xml version="1.0" encoding="UTF-8"?>
<!DOCTYPE svg PUBLIC "-//W3C//DTD SVG 1.1//EN" "http://www.w3.org/Graphics/SVG/1.1/DTD/svg11.dtd">
<svg version="1.1" id="Layer_1" xmlns="http://www.w3.org/2000/svg" xmlns:xlink="http://www.w3.org/1999/xlink" x="0px" y="0px" width="16px" height="16px" viewBox="0 0 16 16" enable-background="new 0 0 16 16" xml:space="preserve">
  <g id="main">
    <clipPath id="clip_mask">
      <path d="M6.1115,15.4688l0.9699,-2.2687c0.098,-0.2294,0.2768,-0.4109,0.4979,-0.5138c0.0489,-0.1051,0.1161,-0.2019,0.1996,-0.2854l4.8635,-4.8635c0.0782,-0.0781,0.166,-0.1406,0.2597,-0.1875c0.0545,-0.1371,0.1392,-0.2618,0.2496,-0.3641l0.5781,-0.5356c0.3549,-0.346,0.7265,-0.4193,0.9774,-0.4193c0.2547,0,0.6338,0.0755,0.9937,0.4353L16,6.7654V0H0v16h6.0411C6.0164,15.8235,6.0383,15.64,6.1115,15.4688z"/>
    </clipPath>
    <g id="icon" clip-path="url(#clip_mask)">
      <path d="M13.8,14.5H1.2c-0.385,0,-0.7,-0.315,-0.7,-0.7V4.5h14v9.3C14.5,14.185,14.185,14.5,13.8,14.5z" fill-rule="evenodd" fill="#FFFFFF" stroke="#797979" stroke-width="1" stroke-miterlimit="1"/>
      <path d="M13.7,1h-0.7v2h-3V1H5v2H2V1h-0.7C0.5832,1,0,1.5832,0,2.3v2.7h15V2.3C15,1.5832,14.4168,1,13.7,1z" fill="#3E79B4"/>
      <g>
        <rect x="3" width="1" height="3" fill="#797979"/>
        <rect x="11" width="1" height="3" fill="#797979"/>
      </g>
      <path d="M5,6v3H2v4h11V6H5zM5,12H3v-2h2V12zM9,12H6v-2h3V12zM9,9H6V7h3V9zM12,12h-2v-2h2V12zM12,9h-2V7h2V9z" fill="#999999"/>
    </g>
    <g id="overlay">
      <path d="M8.486,13.108l4.8635,-4.8635l1.4369,1.4369l-4.8635,4.8635L8.486,13.108zM14.4206,7.1734c0.1899,-0.1899,0.3832,-0.1899,0.5732,0l0.8637,0.8637c0.1899,0.1899,0.1899,0.3833,0,0.5732l-0.5809,0.5443l-1.4453,-1.4352L14.4206,7.1734zM7.031,15.8619l0.9699,-2.2687l1.4369,1.4369L7.169,16L7.031,15.8619z" fill-rule="evenodd" fill="#E9B665"/>
    </g>
  </g>
</svg>
