<?xml version="1.0" encoding="UTF-8"?>
<!DOCTYPE svg PUBLIC "-//W3C//DTD SVG 1.1//EN" "http://www.w3.org/Graphics/SVG/1.1/DTD/svg11.dtd">
<svg version="1.1" id="Layer_1" xmlns="http://www.w3.org/2000/svg" xmlns:xlink="http://www.w3.org/1999/xlink" x="0px" y="0px" width="16px" height="16px" viewBox="0 0 16 16" enable-background="new 0 0 16 16" xml:space="preserve">
  <g id="main">
    <clipPath id="clip_mask">
      <path d="M6,11.5c0,-3.0327,2.4673,-5.5,5.5,-5.5c1.8588,0,3.5039,0.9278,4.5,2.3436V0H0v16h8.3436C6.9278,15.0039,6,13.3588,6,11.5z"/>
    </clipPath>
    <g id="icon" clip-path="url(#clip_mask)">
      <path d="M13.8,14.5H1.2c-0.385,0,-0.7,-0.315,-0.7,-0.7V4.5h14v9.3C14.5,14.185,14.185,14.5,13.8,14.5z" fill-rule="evenodd" fill="#FFFFFF" stroke="#797979" stroke-width="1" stroke-miterlimit="1"/>
      <path d="M13.7,1h-0.7v2h-3V1H5v2H2V1h-0.7C0.5832,1,0,1.5832,0,2.3v2.7h15V2.3C15,1.5832,14.4168,1,13.7,1z" fill="#3E79B4"/>
      <g>
        <rect x="3" width="1" height="3" fill="#797979"/>
        <rect x="11" width="1" height="3" fill="#797979"/>
      </g>
      <path d="M5,6v3H2v4h11V6H5zM5,12H3v-2h2V12zM9,12H6v-2h3V12zM9,9H6V7h3V9zM12,12h-2v-2h2V12zM12,9h-2V7h2V9z" fill="#999999"/>
    </g>
    <g id="overlay">
      <path d="M11.5,7c-2.4853,0,-4.5,2.0147,-4.5,4.5c0,2.4853,2.0147,4.5,4.5,4.5s4.5,-2.0147,4.5,-4.5C16,9.0147,13.9853,7,11.5,7zM14,12h-2v2h-1v-2H9v-1h2V9h1v2h2V12z" fill-rule="evenodd" fill="#4EA17E"/>
      <polygon points="14,11 12,11 12,9 11,9 11,11 9,11 9,12 11,12 11,14 12,14 12,12 14,12" fill-rule="evenodd" fill="#FFFFFF" stroke-linejoin="miter"/>
    </g>
  </g>
</svg>
