<?xml version="1.0" encoding="UTF-8"?>
<!DOCTYPE svg PUBLIC "-//W3C//DTD SVG 1.1//EN" "http://www.w3.org/Graphics/SVG/1.1/DTD/svg11.dtd">
<svg version="1.1" id="Layer_1" xmlns="http://www.w3.org/2000/svg" xmlns:xlink="http://www.w3.org/1999/xlink" x="0px" y="0px" width="16px" height="16px" viewBox="0 0 16 16" enable-background="new 0 0 16 16" xml:space="preserve">
  <g id="main">
    <clipPath id="clip_mask">
      <path d="M6,11.5c0,-3.0327,2.4673,-5.5,5.5,-5.5c1.8588,0,3.5039,0.9278,4.5,2.3436V0H0v16h8.3436C6.9278,15.0039,6,13.3588,6,11.5z"/>
    </clipPath>
    <g id="icon" clip-path="url(#clip_mask)">
      <path d="M13.8,14.5H1.2c-0.385,0,-0.7,-0.315,-0.7,-0.7V2.5h14v11.3C14.5,14.185,14.185,14.5,13.8,14.5z" fill-rule="evenodd" fill="#FFFFFF"/>
      <path d="M13.7,0H1.3C0.583,0,0,0.583,0,1.3v1.7v1v9.8c0,0.662,0.538,1.2,1.2,1.2h12.6c0.662,0,1.2,-0.538,1.2,-1.2V4V3V1.3C15,0.583,14.417,0,13.7,0zM14,13.8c0,0.108,-0.092,0.2,-0.2,0.2H1.2c-0.108,0,-0.2,-0.092,-0.2,-0.2V3h13V13.8z" fill="#797979"/>
      <path d="M6,4.5V3h1v1.5H6zM4,4.5V3H3v1.5H4zM3,9.5h1v1.5h2V9.5h1v1.5h2V9H7.5V8h1.5V6H7.5V5h1.5V3h1v2h2V3h1v2h1v1h-1v2h1v1h-1v2h1v1h-1v2h-1v-2h-2v2H9v-2H7v2H6v-2H4v2H3v-2H1v-1h2V9.5zM10,11h2V9h-2V11zM10,8h2V6h-2V8zM1,5v1h1.5V5H1zM2.5,8H1v1h1.5V8z" fill="#B4B4B5"/>
      <path d="M3,5v4h4V5H3zM4,6h2v2H4V6z" fill="#CD4C32"/>
    </g>
    <g id="overlay">
      <path d="M11.5,7c-2.4853,0,-4.5,2.0147,-4.5,4.5c0,2.4853,2.0147,4.5,4.5,4.5s4.5,-2.0147,4.5,-4.5C16,9.0147,13.9853,7,11.5,7zM14,12h-2v2h-1v-2H9v-1h2V9h1v2h2V12z" fill-rule="evenodd" fill="#4EA17E"/>
      <polygon points="14,11 12,11 12,9 11,9 11,11 9,11 9,12 11,12 11,14 12,14 12,12 14,12" fill-rule="evenodd" fill="#FFFFFF" stroke-linejoin="miter"/>
    </g>
  </g>
</svg>
