<?xml version="1.0" encoding="UTF-8"?>
<!DOCTYPE svg PUBLIC "-//W3C//DTD SVG 1.1//EN" "http://www.w3.org/Graphics/SVG/1.1/DTD/svg11.dtd">
<svg version="1.1" id="Layer_1" xmlns="http://www.w3.org/2000/svg" xmlns:xlink="http://www.w3.org/1999/xlink" x="0px" y="0px" width="16px" height="16px" viewBox="0 0 16 16" enable-background="new 0 0 16 16" xml:space="preserve">
  <g id="main">
    <clipPath id="clip_mask">
      <path d="M7.3486,15.7889c-0.2149,-0.2153,-0.3486,-0.5004,-0.3486,-0.8035V12.25c0,-0.5788,0.4478,-1.0579,1.008,-1.1275c-0.2576,-0.0588,-0.4853,-0.2067,-0.6475,-0.4198c-0.2133,-0.2801,-0.2816,-0.6498,-0.188,-0.9889c0.2239,-0.8113,0.6518,-1.5569,1.2345,-2.156c0.9565,-0.9835,2.2192,-1.5252,3.5987,-1.5252C12.6,6.0325,13.2,6.1622,13.8,6.4037v-0.0026c0,-0.6267,0.5349,-1.1365,1.162,-1.1365c0.3028,0,0.6002,0.1184,0.815,0.3333l0.223,0.2214V0H0v16h7.5635L7.3486,15.7889z"/>
    </clipPath>
    <g id="icon" clip-path="url(#clip_mask)">
      <path d="M13.8,14.5H1.2c-0.385,0,-0.7,-0.315,-0.7,-0.7V2.5h14v11.3C14.5,14.185,14.185,14.5,13.8,14.5z" fill-rule="evenodd" fill="#FFFFFF"/>
      <path d="M13.7,0H1.3C0.583,0,0,0.583,0,1.3v1.7v1v9.8c0,0.662,0.538,1.2,1.2,1.2h12.6c0.662,0,1.2,-0.538,1.2,-1.2V4V3V1.3C15,0.583,14.417,0,13.7,0zM14,13.8c0,0.108,-0.092,0.2,-0.2,0.2H1.2c-0.108,0,-0.2,-0.092,-0.2,-0.2V3h13V13.8z" fill="#797979"/>
      <path d="M6,4.5V3h1v1.5H6zM4,4.5V3H3v1.5H4zM3,9.5h1v1.5h2V9.5h1v1.5h2V9H7.5V8h1.5V6H7.5V5h1.5V3h1v2h2V3h1v2h1v1h-1v2h1v1h-1v2h1v1h-1v2h-1v-2h-2v2H9v-2H7v2H6v-2H4v2H3v-2H1v-1h2V9.5zM10,11h2V9h-2V11zM10,8h2V6h-2V8zM1,5v1h1.5V5H1zM2.5,8H1v1h1.5V8z" fill="#B4B4B5"/>
      <path d="M3,5v4h4V5H3zM4,6h2v2H4V6z" fill="#CD4C32"/>
    </g>
    <g id="overlay">
      <path d="M8.2714,10.1508c-0.0894,0,-0.1555,-0.0849,-0.1317,-0.1711c0.1743,-0.6318,0.5026,-1.228,0.9858,-1.7248c0.7667,-0.7883,1.7987,-1.2225,2.9059,-1.2225c0.9254,0,1.9082,0.4088,2.6748,1.0147l0.1434,0.1133V6.4011c0,-0.1214,0.1467,-0.1821,0.2325,-0.0963l0.8781,0.8781c0.0255,0.0255,0.0399,0.0602,0.0399,0.0963v2.7355c0,0.0752,-0.061,0.1362,-0.1362,0.1362h-2.748c-0.0357,0,-0.0701,-0.014,-0.0955,-0.0391l-0.8919,-0.8775c-0.087,-0.0856,-0.0262,-0.2336,0.0959,-0.2333l1.5282,0.0041l-0.3639,-0.251c-0.0032,-0.0022,-0.0064,-0.0042,-0.0097,-0.0062c-0.4147,-0.2442,-0.8898,-0.3733,-1.3745,-0.3733c-0.7408,0,-1.4343,0.2993,-1.9528,0.8428c-0.2423,0.254,-0.4253,0.543,-0.5501,0.8498c-0.0207,0.0509,-0.0706,0.0837,-0.1255,0.0837H8.2714zM15.7542,12.1138c0.0894,0,0.1555,0.0849,0.1317,0.1711c-0.1743,0.6318,-0.5026,1.228,-0.9858,1.7248c-0.7667,0.7883,-1.7987,1.2225,-2.9059,1.2225c-0.9254,0,-1.9082,-0.4087,-2.6748,-1.0147l-0.1434,-0.1133v1.7594c0,0.1214,-0.1467,0.1821,-0.2325,0.0963l-0.8781,-0.8781c-0.0255,-0.0255,-0.0399,-0.0602,-0.0399,-0.0963V12.25c0,-0.0752,0.061,-0.1362,0.1362,-0.1362h2.748c0.0357,0,0.0701,0.014,0.0955,0.0391l0.8919,0.8775c0.087,0.0856,0.0262,0.2336,-0.0959,0.2333l-1.5282,-0.0041l0.3639,0.251c0.0032,0.0022,0.0064,0.0042,0.0097,0.0062c0.4147,0.2442,0.8898,0.3733,1.3745,0.3733c0.7408,0,1.4343,-0.2993,1.9528,-0.8428c0.2423,-0.254,0.4253,-0.543,0.5501,-0.8498c0.0207,-0.0509,0.0706,-0.0837,0.1255,-0.0837H15.7542z" fill="#529FBF"/>
    </g>
  </g>
</svg>
