<?xml version="1.0" encoding="UTF-8"?>
<!DOCTYPE svg PUBLIC "-//W3C//DTD SVG 1.1//EN" "http://www.w3.org/Graphics/SVG/1.1/DTD/svg11.dtd">
<svg version="1.1" id="Layer_1" xmlns="http://www.w3.org/2000/svg" xmlns:xlink="http://www.w3.org/1999/xlink" x="0px" y="0px" width="16px" height="16px" viewBox="0 0 16 16" enable-background="new 0 0 16 16" xml:space="preserve">
  <g id="main">
    <g id="icon">
      <path d="M9.761,2.756L9.132,2.913L8.53,3.146L7.967,3.435L7.002,4.088L6.329,4.695L2,9.3L2,4.88L1.938,4.782L1.828,4.805L0.118,6.47L0.03066,6.609L0,6.772L0,12.79L0.05898,12.94L0.2016,13L5.877,13L6.031,12.97L6.162,12.87L7.71,11.18L7.732,11.07L7.639,11L3.303,11L6.066,8.018L7.741,6.273L7.772,6.245L8.209,5.851L8.855,5.402L9.615,5.033L10.01,4.921L10.39,4.879L10.86,4.91L11.32,5.007L11.76,5.175L12.15,5.421L12.49,5.751L12.75,6.17L12.92,6.685L12.95,7L15.03,7L14.97,6.331L14.72,5.443L14.31,4.657L13.76,3.986L13.08,3.442L12.29,3.038L11.39,2.786L10.41,2.699zz" fill="#4EA17E"/>
    </g>
    <g id="overlay">
      <path d="M8.78,16c-0.154,0,-0.28,-0.121,-0.28,-0.27v-0.283c0,-0.069,0.027,-0.135,0.076,-0.186l3.204,-3.265L8.74,8.702c-0.046,-0.05,-0.071,-0.114,-0.071,-0.18V8.27c0,-0.149,0.125,-0.27,0.28,-0.27h6.099c0.147,0,0.27,0.111,0.279,0.253c0.012,0.182,0.076,1.025,0.141,1.661c0.015,0.147,-0.092,0.277,-0.244,0.295l-0.375,0.045c-0.012,0.001,-0.023,0.002,-0.035,0.002c-0.124,0,-0.235,-0.081,-0.269,-0.196c-0.158,-0.536,-0.27,-0.723,-0.411,-0.864l-0.009,-0.009c-0.107,-0.118,-0.361,-0.275,-1.336,-0.275h-1.659l2.315,2.513c0.096,0.104,0.095,0.26,-0.002,0.362l-2.618,2.777h2.872c0.712,0,1.015,-0.037,1.386,-0.959c0.042,-0.104,0.144,-0.172,0.26,-0.172c0.022,0,0.044,0.003,0.066,0.008l0.375,0.087c0.073,0.017,0.137,0.063,0.175,0.126c0.037,0.062,0.048,0.134,0.03,0.203l-0.504,1.938c-0.031,0.12,-0.143,0.204,-0.271,0.204H8.78z" fill="#6D6E71"/>
    </g>
  </g>
</svg>
