<?xml version="1.0" encoding="UTF-8"?>
<!DOCTYPE svg PUBLIC "-//W3C//DTD SVG 1.1//EN" "http://www.w3.org/Graphics/SVG/1.1/DTD/svg11.dtd">
<svg version="1.1" id="Layer_1" xmlns="http://www.w3.org/2000/svg" xmlns:xlink="http://www.w3.org/1999/xlink" x="0px" y="0px" width="16px" height="16px" viewBox="0 0 16 16" enable-background="new 0 0 16 16" xml:space="preserve">
  <g id="main">
    <clipPath id="clip_mask">
      <path d="M6.4906,15.3857c-0.5157,-0.5179,-0.7934,-1.2119,-0.7819,-1.9542c0.0114,-0.727,0.2983,-1.409,0.808,-1.9207l4.9994,-5.017c0.5127,-0.5147,1.2269,-0.8101,1.9591,-0.8101c0.7294,0,1.4105,0.2806,1.9178,0.7899L16,7.0831V0H0v16h7.1025L6.4906,15.3857z"/>
    </clipPath>
    <g id="icon" clip-path="url(#clip_mask)">
      <path d="M13.8,14.5H1.2c-0.385,0,-0.7,-0.315,-0.7,-0.7V2.5h14v11.3C14.5,14.185,14.185,14.5,13.8,14.5z" fill-rule="evenodd" fill="#FFFFFF"/>
      <path d="M13.7,0H1.3C0.583,0,0,0.583,0,1.3v1.7v1v9.8c0,0.662,0.538,1.2,1.2,1.2h12.6c0.662,0,1.2,-0.538,1.2,-1.2V4V3V1.3C15,0.583,14.417,0,13.7,0zM14,13.8c0,0.108,-0.092,0.2,-0.2,0.2H1.2c-0.108,0,-0.2,-0.092,-0.2,-0.2V3h13V13.8z" fill="#797979"/>
      <path d="M6,4.5V3h1v1.5H6zM4,4.5V3H3v1.5H4zM3,9.5h1v1.5h2V9.5h1v1.5h2V9H7.5V8h1.5V6H7.5V5h1.5V3h1v2h2V3h1v2h1v1h-1v2h1v1h-1v2h1v1h-1v2h-1v-2h-2v2H9v-2H7v2H6v-2H4v2H3v-2H1v-1h2V9.5zM10,11h2V9h-2V11zM10,8h2V6h-2V8zM1,5v1h1.5V5H1zM2.5,8H1v1h1.5V8z" fill="#B4B4B5"/>
      <path d="M3,5v4h4V5H3zM4,6h2v2H4V6z" fill="#CD4C32"/>
    </g>
    <g id="overlay">
      <path d="M9.2295,16c-0.4614,0,-0.8909,-0.176,-1.2092,-0.4956l-0.8212,-0.8244c-0.3236,-0.3249,-0.4978,-0.7628,-0.4905,-1.233c0.0073,-0.4663,0.1907,-0.9033,0.5166,-1.2305l1.6569,-1.6626l-0.0166,0.1611c-0.0367,0.3557,0.0234,0.859,0.2422,1.1239l0.0332,0.0402l-1.1259,1.1287c-0.1135,0.114,-0.1827,0.2732,-0.1898,0.4367c-0.0073,0.1695,0.0508,0.3253,0.1638,0.4387l0.821,0.8198c0.1035,0.1039,0.2485,0.1588,0.4193,0.1588c0.1824,0,0.3462,-0.0636,0.4612,-0.179l2.3086,-2.3077c0.2314,-0.2324,0.2237,-0.6042,-0.0177,-0.8465l-0.8723,-0.8757l0.7895,-0.7926l0.8726,0.8761c0.6724,0.6752,0.6803,1.7658,0.0176,2.4311l-2.3085,2.3167C10.1538,15.8119,9.6978,16,9.2295,16zM9.9334,11.9475c-0.3265,-0.3277,-0.5084,-0.7601,-0.5123,-1.2174c-0.004,-0.4584,0.1717,-0.8894,0.4948,-1.2138l2.3085,-2.3167c0.3266,-0.3279,0.7825,-0.5159,1.2508,-0.5159c0.4615,0,0.8909,0.176,1.2092,0.4956l0.8212,0.8244c0.6693,0.672,0.6576,1.7771,-0.0261,2.4634l-1.657,1.6624l0.0166,-0.1611c0.0367,-0.3555,-0.0235,-0.859,-0.2422,-1.1242l-0.0331,-0.0402l1.1259,-1.1293c0.1135,-0.1139,0.1827,-0.2735,0.1899,-0.4378c0.0074,-0.1709,-0.0508,-0.3274,-0.1638,-0.4409l-0.8212,-0.8244c-0.1077,-0.1081,-0.2566,-0.1676,-0.4192,-0.1676c-0.1741,0,-0.3422,0.0685,-0.4612,0.188l-2.3085,2.3167c-0.113,0.1133,-0.1727,0.2637,-0.1681,0.4234c0.0045,0.1572,0.0705,0.3075,0.1857,0.4232l0.8723,0.8757l-0.7895,0.7926L9.9334,11.9475z" fill="#E68055"/>
    </g>
  </g>
</svg>
