<?xml version="1.0" encoding="UTF-8"?>
<!DOCTYPE svg PUBLIC "-//W3C//DTD SVG 1.1//EN" "http://www.w3.org/Graphics/SVG/1.1/DTD/svg11.dtd">
<svg version="1.1" id="Layer_1" xmlns="http://www.w3.org/2000/svg" xmlns:xlink="http://www.w3.org/1999/xlink" x="0px" y="0px" width="16px" height="16px" viewBox="0 0 16 16" enable-background="new 0 0 16 16" xml:space="preserve">
  <g id="main">
    <clipPath id="clip_mask">
      <path d="M10.2965,15.1164l0.1191,-0.1164H8.2563C7.5636,15,7,14.4188,7,13.7261v-1.5012C7,11.538,7.5557,11,8.265,11h2.1508l-0.1003,-0.1049c-0.3107,-0.3201,-0.4014,-0.7909,-0.2306,-1.2041c0.1727,-0.4181,0.5767,-0.6891,1.0291,-0.6904L13.0519,9c0.323,0,0.6292,0.1217,0.8634,0.3427l0.0172,0.0162l0.0164,0.017c0.0151,0.0156,1.1799,1.2238,2.0512,2.1122V0H0v16h9.989C9.9551,15.6796,10.0633,15.358,10.2965,15.1164z" fill-rule="evenodd"/>
    </clipPath>
    <g id="icon" clip-path="url(#clip_mask)">
      <path d="M13.8,14.5H1.2c-0.385,0,-0.7,-0.315,-0.7,-0.7V2.5h14v11.3C14.5,14.185,14.185,14.5,13.8,14.5z" fill-rule="evenodd" fill="#FFFFFF"/>
      <path d="M13.7,0H1.3C0.583,0,0,0.583,0,1.3v1.7v1v9.8c0,0.662,0.538,1.2,1.2,1.2h12.6c0.662,0,1.2,-0.538,1.2,-1.2V4V3V1.3C15,0.583,14.417,0,13.7,0zM14,13.8c0,0.108,-0.092,0.2,-0.2,0.2H1.2c-0.108,0,-0.2,-0.092,-0.2,-0.2V3h13V13.8z" fill="#797979"/>
      <path d="M6,4.5V3h1v1.5H6zM4,4.5V3H3v1.5H4zM3,9.5h1v1.5h2V9.5h1v1.5h2V9H7.5V8h1.5V6H7.5V5h1.5V3h1v2h2V3h1v2h1v1h-1v2h1v1h-1v2h1v1h-1v2h-1v-2h-2v2H9v-2H7v2H6v-2H4v2H3v-2H1v-1h2V9.5zM10,11h2V9h-2V11zM10,8h2V6h-2V8zM1,5v1h1.5V5H1zM2.5,8H1v1h1.5V8z" fill="#B4B4B5"/>
      <path d="M3,5v4h4V5H3zM4,6h2v2H4V6z" fill="#CD4C32"/>
    </g>
    <g id="overlay">
      <path d="M13.2288,10.0699c-0.0478,-0.0451,-0.111,-0.0701,-0.1767,-0.0699l-1.9354,0.0006c-0.1039,0.0003,-0.1557,0.1259,-0.0823,0.1994l1.7219,1.8H8.265c-0.1416,0,-0.265,0.0833,-0.265,0.2249v0.5601v0.502v0.4391c0,0.1416,0.1148,0.2563,0.2563,0.2563h4.4912l-1.7304,1.8185c-0.0732,0.0737,-0.0209,0.1991,0.0829,0.1991h1.9222c0.0662,0,0.1299,-0.0256,0.1776,-0.0715c0,0,1.9735,-2.0193,2.7414,-2.7965c0.0786,-0.0795,0.078,-0.204,-0.0013,-0.2828C15.1735,12.0873,13.2288,10.0699,13.2288,10.0699z" fill-rule="evenodd" fill="#3E79B4"/>
    </g>
  </g>
</svg>
