<svg width="200" height="22" viewBox="0 0 200 22" fill="none" xmlns="http://www.w3.org/2000/svg">
<g clip-path="url(#clip0_4576_192770)">
<path d="M62.5333 13.9237C62.5333 11.0189 61.8423 8.72071 60.4815 7.08782C59.0931 5.42344 57.1493 4.57971 54.6969 4.57971C52.2444 4.57971 50.1989 5.45492 48.6918 7.18017C47.2695 8.80886 46.5488 10.8804 46.5488 13.3361C46.5488 15.8777 47.2017 17.9367 48.4947 19.4626C49.9191 21.1311 52.0091 21.9812 54.6969 21.9812C56.8165 21.9812 58.5504 21.4418 59.8604 20.3755C60.9732 19.4626 61.819 18.1361 62.3701 16.436L62.5291 15.9491H59.4958L59.4216 16.2387C59.1987 17.2326 58.6052 18.1066 57.7598 18.686C56.8577 19.286 55.7895 19.5933 54.7032 19.5654C53.0075 19.5654 51.7081 19.0449 50.767 17.9703C49.9488 17.0384 49.4952 15.8043 49.4443 14.2994H62.5397L62.5333 13.9237ZM54.6905 6.98708C56.2803 6.98708 57.4864 7.50969 58.383 8.58219C59.1376 9.4805 59.5488 10.6412 59.6124 12.0306H49.4931C49.6796 10.7717 50.2128 9.58804 51.0341 8.60947C51.4809 8.08239 52.0427 7.66254 52.6772 7.38152C53.3116 7.1005 54.0022 6.96564 54.6969 6.98708H54.6905Z" fill="#F97316"/>
<path d="M70.6568 7.40254H74.3896V4.67405H70.4491V2.86486C70.4491 -0.00634926 67.6087 -0.00634766 67.6087 -0.00634766V4.67405H64.8828V7.40254H67.6087V15.4369C67.6087 17.4203 68.2637 19.0259 69.5525 20.2138C70.8412 21.4018 72.4034 21.9769 74.3811 21.9769V19.3113C73.0181 19.3113 72.0092 18.8685 71.2906 17.9597C70.7131 17.2086 70.4138 16.2839 70.4427 15.3403V7.40254H70.6568Z" fill="#F97316"/>
<path d="M36.8062 7.24943C38.1713 7.24943 39.1845 7.69019 39.9052 8.59898C40.4822 9.3495 40.7815 10.2734 40.753 11.2162V19.1079C40.753 21.977 43.5934 21.977 43.5934 21.977V11.1218C43.5934 9.16567 42.9575 7.57055 41.6984 6.37002C40.4075 5.16529 38.8135 4.57971 36.8232 4.57971C34.8328 4.57971 33.2706 5.15689 31.9966 6.34483C30.7227 7.53278 30.0508 9.13838 30.0508 11.1218V21.977H32.889V11.2225C32.8592 10.2789 33.1587 9.35386 33.7369 8.60318C34.4428 7.69018 35.4432 7.24943 36.8062 7.24943Z" fill="#F97316"/>
<path d="M89.7656 6.36997C88.4748 5.16524 86.885 4.57966 84.8904 4.57966C83.3494 4.57966 82.0564 4.93646 80.9563 5.65216V0H78.1074V22.0021H80.9457V11.2225C80.9148 10.2787 81.2144 9.35332 81.7935 8.60313C82.5121 7.69643 83.5211 7.25568 84.884 7.25568C86.247 7.25568 87.2602 7.69643 87.9809 8.60523C88.5579 9.35575 88.8572 10.2797 88.8288 11.2225V19.1393C88.8288 22.0084 91.6712 22.0084 91.6712 22.0084V11.1217C91.6564 9.16562 91.0163 7.5705 89.7656 6.36997Z" fill="#F97316"/>
<path d="M98.6322 17.9052C98.8861 18.3179 99.2393 18.6619 99.6602 18.9064C100.106 19.1631 100.591 19.344 101.097 19.4416C101.64 19.55 102.191 19.6041 102.744 19.6032C103.203 19.6011 103.661 19.5682 104.116 19.5045C104.571 19.4473 105.016 19.3279 105.438 19.1498C105.83 18.9855 106.173 18.7238 106.433 18.3901C106.706 18.0212 106.844 17.5711 106.825 17.114C106.842 16.7976 106.776 16.4823 106.633 16.199C106.49 15.9156 106.275 15.674 106.009 15.4979C105.382 15.0943 104.693 14.7938 103.97 14.608C103.153 14.3813 102.266 14.177 101.309 13.9951C100.398 13.8252 99.5059 13.5651 98.647 13.2185C97.8681 12.9096 97.1706 12.4286 96.6079 11.8123C96.0639 11.2092 95.7918 10.3697 95.7918 9.2937C95.7707 8.53251 95.9693 7.78114 96.3641 7.1277C96.7353 6.53434 97.2376 6.03202 97.8331 5.65852C98.4564 5.27143 99.1395 4.98785 99.8552 4.81898C100.587 4.63838 101.338 4.54606 102.092 4.54404C102.979 4.53778 103.865 4.61934 104.737 4.7875C105.496 4.931 106.221 5.21588 106.874 5.62704C107.499 6.03234 108.009 6.5885 108.357 7.24314C108.757 8.03245 108.98 8.89808 109.01 9.78063H106.238C106.214 9.30503 106.069 8.84326 105.814 8.43947C105.579 8.08873 105.267 7.79581 104.9 7.58315C104.519 7.36391 104.106 7.20526 103.675 7.11302C103.23 7.0165 102.776 6.96794 102.32 6.96819C101.9 6.96944 101.479 7.00171 101.063 7.06474C100.663 7.12308 100.272 7.23757 99.904 7.40475C99.5746 7.55223 99.2843 7.77354 99.0561 8.05119C98.8279 8.35304 98.7125 8.72394 98.7297 9.10061C98.7239 9.32167 98.7662 9.54137 98.8536 9.74487C98.941 9.94836 99.0715 10.1309 99.2363 10.2802C99.6126 10.6166 100.05 10.8794 100.525 11.0546C101.098 11.2749 101.687 11.4483 102.289 11.573C102.941 11.713 103.594 11.8585 104.247 12.0096C104.942 12.1607 105.622 12.3433 106.286 12.5574C106.913 12.756 107.507 13.0445 108.05 13.4137C108.557 13.7663 108.981 14.2248 109.29 14.757C109.624 15.3711 109.787 16.0621 109.763 16.7593C109.796 17.6415 109.576 18.5151 109.127 19.2779C108.71 19.9404 108.139 20.4951 107.463 20.8961C106.748 21.3162 105.962 21.6062 105.144 21.7524C104.299 21.9123 103.441 21.9931 102.581 21.9938C101.68 21.9979 100.782 21.9 99.904 21.702C99.0997 21.5278 98.3359 21.2045 97.6529 20.7492C96.9945 20.3034 96.4567 19.7045 96.0865 19.005C95.6697 18.1875 95.4464 17.2867 95.4336 16.371H98.2083C98.2119 16.9103 98.3581 17.4392 98.6322 17.9052Z" fill="#F97316"/>
<path d="M124.779 20.5728C123.518 21.5187 121.93 21.9924 120.014 21.9938C118.811 22.0212 117.616 21.801 116.503 21.3473C115.544 20.9386 114.69 20.3201 114.006 19.5381C113.312 18.7251 112.795 17.7782 112.489 16.7572C112.14 15.6138 111.949 14.4292 111.919 13.2353C111.905 12.0494 112.104 10.8706 112.506 9.75335C112.871 8.74073 113.431 7.80776 114.155 7.00597C114.855 6.23449 115.71 5.61737 116.667 5.19468C117.668 4.75772 118.752 4.53734 119.846 4.54824C121.347 4.54824 122.593 4.85536 123.583 5.46962C124.549 6.05969 125.364 6.86187 125.966 7.81403C126.567 8.76479 126.987 9.81597 127.208 10.9161C127.43 11.9681 127.522 13.0428 127.483 14.1168H114.856C114.83 14.8209 114.918 15.5247 115.117 16.201C115.304 16.8421 115.626 17.4366 116.063 17.9451C116.519 18.4679 117.089 18.8824 117.729 19.1582C118.481 19.4758 119.293 19.6304 120.111 19.6116C121.285 19.6116 122.248 19.3422 123 18.8035C123.752 18.2648 124.247 17.4456 124.484 16.3458H127.225C126.857 18.2152 126.042 19.6242 124.779 20.5728ZM124.105 9.8415C123.583 8.68636 122.626 7.7783 121.439 7.31034C120.251 6.84237 118.926 6.8514 117.746 7.33549C117.186 7.57147 116.681 7.91783 116.262 8.35342C115.845 8.79086 115.513 9.30021 115.283 9.85619C115.04 10.4383 114.897 11.056 114.859 11.6843H124.55C124.507 11.0496 124.357 10.4266 124.105 9.8415Z" fill="#F97316"/>
<path d="M148.871 21.6391L142.604 4.92603H145.705L150.438 18.856H150.504L155.105 4.92603H158.02L151.85 21.637L148.871 21.6391Z" fill="#F97316"/>
<path d="M177.889 7.83704C177.192 7.25636 176.257 6.96532 175.082 6.96392C174.211 6.93493 173.346 7.12406 172.568 7.51382C171.917 7.85945 171.361 8.35907 170.951 8.96832C170.535 9.60396 170.242 10.3107 170.086 11.0525C169.911 11.8544 169.823 12.6728 169.826 13.4934C169.824 14.2559 169.916 15.0158 170.101 15.756C170.27 16.4536 170.563 17.116 170.966 17.7121C171.359 18.2845 171.886 18.7552 172.501 19.0847C173.198 19.4463 173.977 19.6248 174.764 19.6031C176.134 19.6031 177.205 19.247 177.978 18.5348C178.751 17.8226 179.224 16.8208 179.398 15.5293H182.238C181.933 17.5987 181.156 19.1931 179.907 20.3125C178.658 21.4319 176.955 21.9916 174.798 21.9916C173.627 22.0155 172.462 21.8072 171.373 21.3787C170.419 20.9973 169.569 20.4 168.891 19.6346C168.208 18.8468 167.697 17.9279 167.39 16.9355C167.042 15.821 166.871 14.6598 166.883 13.4934C166.875 12.3071 167.04 11.1257 167.373 9.98625C167.672 8.9502 168.177 7.98346 168.857 7.14233C169.531 6.32607 170.385 5.67347 171.354 5.23448C172.453 4.75183 173.645 4.51465 174.847 4.53977C175.756 4.53357 176.661 4.64793 177.539 4.87978C178.339 5.0885 179.092 5.44451 179.758 5.9292C180.407 6.41098 180.947 7.02234 181.342 7.7237C181.777 8.51813 182.044 9.39237 182.126 10.2927H179.26C179.043 9.23347 178.585 8.41492 177.889 7.83704Z" fill="#F97316"/>
<path d="M197.279 20.5728C196.017 21.5186 194.428 21.9923 192.514 21.9937C191.311 22.0211 190.116 21.8009 189.003 21.3472C188.044 20.938 187.191 20.3195 186.507 19.538C185.812 18.725 185.295 17.7781 184.989 16.7571C184.64 15.6137 184.449 14.4292 184.419 13.2352C184.405 12.0493 184.604 10.8705 185.006 9.75326C185.371 8.74064 185.931 7.80767 186.655 7.00589C187.355 6.23436 188.212 5.61725 189.169 5.19459C190.17 4.75714 191.254 4.53674 192.348 4.54815C193.849 4.54815 195.095 4.85528 196.085 5.46954C197.051 6.0596 197.866 6.86178 198.468 7.81394C199.069 8.7647 199.49 9.81589 199.71 10.916C199.932 11.968 200.026 13.0427 199.988 14.1167H187.354C187.329 14.8208 187.417 15.5244 187.615 16.2009C187.802 16.8425 188.125 17.4371 188.563 17.945C189.019 18.4675 189.587 18.8821 190.227 19.1581C190.979 19.4757 191.791 19.6303 192.609 19.6115C193.785 19.6115 194.748 19.3421 195.498 18.8034C196.249 18.2647 196.743 17.4455 196.982 16.3457H199.723C199.357 18.2151 198.542 19.6241 197.279 20.5728ZM196.611 9.84142C196.248 8.97915 195.633 8.24422 194.844 7.73136C194.056 7.21849 193.131 6.95119 192.187 6.96391C191.521 6.95378 190.86 7.08027 190.246 7.33541C189.687 7.5719 189.182 7.91819 188.762 8.35334C188.345 8.79078 188.013 9.30012 187.783 9.8561C187.54 10.4382 187.397 11.0559 187.359 11.6842H197.054C197.012 11.0496 196.862 10.4266 196.611 9.84142Z" fill="#F97316"/>
<path d="M163.495 4.92603V21.637H160.721V4.92603H163.495Z" fill="#F97316"/>
<path d="M162.108 2.87121C162.909 2.87121 163.558 2.22847 163.558 1.4356C163.558 0.642742 162.909 0 162.108 0C161.307 0 160.658 0.642742 160.658 1.4356C160.658 2.22847 161.307 2.87121 162.108 2.87121Z" fill="#F97316"/>
<path d="M141.422 6.68692C140.188 5.53466 138.666 4.97217 136.748 4.97217C134.83 4.97217 133.344 5.52416 132.127 6.65124C130.91 7.77831 130.262 9.32935 130.262 11.2267V21.6285H132.979V11.3295C132.949 10.4261 133.235 9.5402 133.789 8.82143C134.478 7.95042 135.444 7.52855 136.756 7.52855C138.068 7.52855 139.035 7.94832 139.724 8.82143L141.422 6.68692Z" fill="#F97316"/>
<path d="M15.7004 18.5998L8.57833 11.4764L2.00733 18.0499L0 16.0833L8.57833 7.5033L15.6347 14.5596L20.8237 9.02495L22.8925 10.9265L15.7004 18.5998Z" fill="#F97316"/>
</g>
<defs>
<clipPath id="clip0_4576_192770">
<rect width="200" height="22" fill="white"/>
</clipPath>
</defs>
</svg>
