<svg version="1.2" xmlns="http://www.w3.org/2000/svg" viewBox="0 0 18 24" width="18" height="24">
	<path id="Layer" fill-rule="evenodd" class="s0" d="m6.5 12.8c0 0.6-0.6 1.2-1.3 1.2-0.6 0-1.2-0.6-1.2-1.3 0-0.6 0.6-1.2 1.3-1.2 0.6 0 1.2 0.6 1.2 1.2zm-2.5 4.5c0-0.6 0.6-1.2 1.3-1.2 0.6 0 1.2 0.6 1.2 1.2 0 0.7-0.6 1.3-1.3 1.3-0.6 0-1.2-0.6-1.2-1.3zm3.3-4.5c0-0.4 0.3-0.7 0.7-0.7h4.7c0.5 0 0.8 0.3 0.8 0.7 0 0.5-0.3 0.8-0.8 0.8h-4.7c-0.4 0-0.7-0.3-0.7-0.8zm5.4 3.8c0.5 0 0.8 0.3 0.8 0.7 0 0.5-0.3 0.8-0.8 0.8h-4.7c-0.4 0-0.8-0.3-0.8-0.8 0.1-0.4 0.4-0.7 0.8-0.7zm-4.5-12.8c0-0.4 0.3-0.7 0.8-0.7 0.4 0 0.7 0.3 0.7 0.8 0 0.4-0.3 0.7-0.7 0.7-0.5 0-0.8-0.3-0.8-0.7zm-2.9-1.3q0.1-0.4 0.4-0.9c0.5-0.8 1.5-1.6 3.3-1.6 1.7 0 2.7 0.8 3.2 1.6q0.3 0.5 0.4 0.9h0.9c0.8 0 1.5 0.7 1.5 1.5 1.6 0 3 1.3 3 3v14c0 1.7-1.4 3-3 3h-12c-1.7 0-3-1.3-3-3v-14c0-1.7 1.3-3 3-3 0-0.8 0.6-1.5 1.5-1.5zm8.1 5h-9c-0.8 0-1.5-0.7-1.5-1.5v-0.5c-0.8 0-1.5 0.7-1.5 1.5v14c0 0.8 0.7 1.5 1.5 1.5h12c0.8 0 1.5-0.7 1.5-1.5v-14c0-0.8-0.7-1.5-1.5-1.5v0.5c0 0.8-0.7 1.5-1.5 1.5zm-8.5-3.5h-0.5v2h9v-2h-0.5-1c-0.4 0-0.8-0.3-0.8-0.7q0-0.1 0-0.1 0-0.1 0-0.2c0-0.2-0.1-0.4-0.2-0.6-0.3-0.4-0.8-0.9-2-0.9-1.3 0-1.8 0.5-2 0.9-0.1 0.2-0.2 0.4-0.2 0.6q0 0.1-0.1 0.2 0 0 0 0.1c0 0.4-0.3 0.7-0.7 0.7z" fill="#4B5563"/>
</svg>