<svg width="16" height="16" viewBox="0 0 16 16" fill="none" xmlns="http://www.w3.org/2000/svg">
<path fill-rule="evenodd" clip-rule="evenodd" d="M0 8C0 3.6 3.6 0 8 0C12.4 0 16 3.6 16 8C16 12.4 12.4 16 8 16C3.6 16 0 12.4 0 8ZM4 9.33333C4.73333 9.33333 5.33333 8.73333 5.33333 8C5.33333 7.26667 4.73333 6.66667 4 6.66667C3.26667 6.66667 2.66667 7.26667 2.66667 8C2.66667 8.73333 3.26667 9.33333 4 9.33333ZM8 6.66667C7.26667 6.66667 6.66667 7.26667 6.66667 8C6.66667 8.73333 7.26667 9.33333 8 9.33333C8.73333 9.33333 9.33333 8.73333 9.33333 8C9.33333 7.26667 8.73333 6.66667 8 6.66667ZM12 9.33333C12.7333 9.33333 13.3333 8.73333 13.3333 8C13.3333 7.26667 12.7333 6.66667 12 6.66667C11.2667 6.66667 10.6667 7.26667 10.6667 8C10.6667 8.73333 11.2667 9.33333 12 9.33333Z" fill="#374151"/>
</svg>
