<svg width="16" height="16" viewBox="0 0 16 16" fill="none" xmlns="http://www.w3.org/2000/svg">
<path d="M9.25 2C9.25 1.44687 8.80313 1 8.25 1C7.69687 1 7.25 1.44687 7.25 2V10C7.25 10.5531 7.69687 11 8.25 11C8.80313 11 9.25 10.5531 9.25 10V2ZM8.25 15C8.58152 15 8.89946 14.8683 9.13388 14.6339C9.3683 14.3995 9.5 14.0815 9.5 13.75C9.5 13.4185 9.3683 13.1005 9.13388 12.8661C8.89946 12.6317 8.58152 12.5 8.25 12.5C7.91848 12.5 7.60054 12.6317 7.36612 12.8661C7.1317 13.1005 7 13.4185 7 13.75C7 14.0815 7.1317 14.3995 7.36612 14.6339C7.60054 14.8683 7.91848 15 8.25 15Z" fill="black"/>
</svg>
