<svg version="1.2" xmlns="http://www.w3.org/2000/svg" viewBox="0 0 24 24" width="24" height="24">
	<title>double-exclamation-svg</title>
	<style>
		.s0 { fill: #000000 } 
	</style>
	<path id="Layer" class="s0" d="m7.5 1.5c0.8 0 1.5 0.7 1.5 1.5v12c0 0.8-0.7 1.5-1.5 1.5-0.8 0-1.5-0.7-1.5-1.5v-12c0-0.8 0.7-1.5 1.5-1.5zm1.3 20.5c-0.3 0.3-0.8 0.5-1.3 0.5-0.5 0-1-0.2-1.3-0.5-0.4-0.4-0.6-0.9-0.6-1.4 0-0.5 0.2-0.9 0.6-1.3 0.3-0.4 0.8-0.6 1.3-0.6 0.5 0 1 0.2 1.3 0.6 0.4 0.4 0.6 0.8 0.6 1.3 0 0.5-0.2 1-0.6 1.4zm7.7-20.5c0.8 0 1.5 0.7 1.5 1.5v12c0 0.8-0.7 1.5-1.5 1.5-0.8 0-1.5-0.7-1.5-1.5v-12c0-0.8 0.7-1.5 1.5-1.5zm1.3 20.5c-0.3 0.3-0.8 0.5-1.3 0.5-0.5 0-1-0.2-1.3-0.5-0.4-0.4-0.6-0.9-0.6-1.4 0-0.5 0.2-0.9 0.6-1.3 0.3-0.4 0.8-0.6 1.3-0.6 0.5 0 1 0.2 1.3 0.6 0.4 0.4 0.6 0.8 0.6 1.3 0 0.5-0.2 1-0.6 1.4z"/>
</svg>