<svg version="1.2" xmlns="http://www.w3.org/2000/svg" viewBox="0 0 16 16" width="16" height="16">
	<path fill-rule="evenodd" fill="#374151" d="m5 4c1.9-1.5 4.8-1.3 6.5 0.5l0.6 0.5h-1.6c-0.6 0-1 0.4-1 1 0 0.6 0.4 1 1 1h4c0.6 0 1-0.4 1-1v-4c0-0.6-0.4-1-1-1-0.6 0-1 0.4-1 1v1.6l-0.6-0.6c-2.6-2.6-6.8-2.7-9.5-0.3zm-0.5 7.6c1.6 1.6 4 1.9 5.9 0.8l1.7 1.3c-2.7 2-6.6 1.8-9.1-0.7l-0.5-0.6v1.6c0 0.6-0.5 1-1 1-0.6 0-1-0.4-1-1v-4q0 0 0-0.1 0-0.1 0-0.1 0.1-0.3 0.3-0.5 0.2-0.2 0.4-0.2 0.1 0 0.2-0.1 0 0 0.1 0h4c0.5 0 1 0.5 1 1 0 0.6-0.5 1-1 1h-1.6zm-3.5-9.4c-0.2-0.2-0.6-0.1-0.8 0.1-0.2 0.3-0.2 0.7 0.1 0.9l14.8 11.6c0.2 0.2 0.6 0.1 0.8-0.1 0.2-0.3 0.2-0.7-0.1-0.9z"/>
</svg>