<svg width="25" height="25" viewBox="0 0 25 25" fill="none" xmlns="http://www.w3.org/2000/svg">
<g id="grid-2">
<path id="Layer" fill-rule="evenodd" clip-rule="evenodd" d="M9 3C10.1 3 11 3.9 11 5V9C11 10.1 10.1 11 9 11H5C3.9 11 3 10.1 3 9V5C3 3.9 3.9 3 5 3H9ZM5 4.5C4.7 4.5 4.5 4.7 4.5 5V9C4.5 9.3 4.7 9.5 5 9.5H9C9.3 9.5 9.5 9.3 9.5 9V5C9.5 4.7 9.3 4.5 9 4.5H5ZM9 14C10.1 14 11 14.9 11 16V20C11 21.1 10.1 22 9 22H5C3.9 22 3 21.1 3 20V16C3 14.9 3.9 14 5 14H9ZM5 15.5C4.7 15.5 4.5 15.7 4.5 16V20C4.5 20.3 4.7 20.5 5 20.5H9C9.3 20.5 9.5 20.3 9.5 20V16C9.5 15.7 9.3 15.5 9 15.5H5ZM14 5C14 3.9 14.9 3 16 3H20C21.1 3 22 3.9 22 5V9C22 10.1 21.1 11 20 11H16C14.9 11 14 10.1 14 9V5ZM16 4.5C15.7 4.5 15.5 4.7 15.5 5V9C15.5 9.3 15.7 9.5 16 9.5H20C20.3 9.5 20.5 9.3 20.5 9V5C20.5 4.7 20.3 4.5 20 4.5H16ZM20 14C21.1 14 22 14.9 22 16V20C22 21.1 21.1 22 20 22H16C14.9 22 14 21.1 14 20V16C14 14.9 14.9 14 16 14H20ZM16 15.5C15.7 15.5 15.5 15.7 15.5 16V20C15.5 20.3 15.7 20.5 16 20.5H20C20.3 20.5 20.5 20.3 20.5 20V16C20.5 15.7 20.3 15.5 20 15.5H16Z" fill="#4B5563"/>
</g>
</svg>
