<svg version="1.2" xmlns="http://www.w3.org/2000/svg" viewBox="0 0 27 24" width="27" height="24">
	<path id="Layer" fill-rule="evenodd" class="s0" d="m26 11.5c0.3 0.2 0.3 0.7 0 1-0.2 0.3-0.7 0.3-1 0l-0.8-0.6 0.1 10c0 0.5-0.3 1-0.6 1.3-0.3 0.3-0.8 0.5-1.3 0.5h-4.5c-0.5 0-0.9-0.2-1.2-0.5-0.4-0.3-0.6-0.8-0.6-1.3v-4.9c0 0 0-0.1-0.1-0.2-0.1-0.1-0.2-0.1-0.3-0.1h-4.4c-0.1 0-0.2 0-0.3 0.1-0.1 0.1-0.1 0.2-0.1 0.2v4.9c0 0.5-0.2 1-0.6 1.3-0.3 0.3-0.7 0.5-1.2 0.5h-4.5c-0.5 0-1-0.2-1.3-0.5-0.3-0.3-0.5-0.8-0.5-1.3v-10l-0.8 0.7c-0.3 0.2-0.8 0.2-1.1-0.1-0.2-0.3-0.2-0.8 0.1-1.1l12.3-11c0.3-0.2 0.7-0.2 1 0.1zm-3.3-1.1l-9-8.4-9.5 8.5v11.4c0 0 0 0.1 0.1 0.2 0.1 0.1 0.2 0.2 0.3 0.2h4.4c0.1 0 0.2-0.1 0.3-0.2 0.1-0.1 0.1-0.2 0.1-0.2v-4.9c0-0.5 0.2-0.9 0.6-1.2 0.3-0.3 0.7-0.6 1.2-0.6h4.5c0.5 0 1 0.3 1.3 0.6 0.3 0.3 0.5 0.7 0.5 1.2v4.9c0 0 0.1 0.1 0.2 0.2 0.1 0.1 0.2 0.2 0.2 0.2h4.5c0 0 0.1-0.1 0.2-0.2 0.1-0.1 0.1-0.2 0.1-0.2z" fill="#4B5563"/>
</svg>