<svg width="16" height="16" viewBox="0 0 20 20" fill="none" xmlns="http://www.w3.org/2000/svg">
<path fill-rule="evenodd" clip-rule="evenodd" d="M2.5 0.5C1.4 0.5 0.5 1.4 0.5 2.5V6.5C0.5 7.6 1.4 8.5 2.5 8.5H6.5C7.6 8.5 8.5 7.6 8.5 6.5V2.5C8.5 1.4 7.6 0.5 6.5 0.5H2.5ZM2.5 11.5C1.4 11.5 0.5 12.4 0.5 13.5V17.5C0.5 18.6 1.4 19.5 2.5 19.5H6.5C7.6 19.5 8.5 18.6 8.5 17.5V13.5C8.5 12.4 7.6 11.5 6.5 11.5H2.5ZM11.5 6.5C11.5 7.6 12.4 8.5 13.5 8.5H17.5C18.6 8.5 19.5 7.6 19.5 6.5V2.5C19.5 1.4 18.6 0.5 17.5 0.5H13.5C12.4 0.5 11.5 1.4 11.5 2.5V6.5ZM13.5 11.5C12.4 11.5 11.5 12.4 11.5 13.5V17.5C11.5 18.6 12.4 19.5 13.5 19.5H17.5C18.6 19.5 19.5 18.6 19.5 17.5V13.5C19.5 12.4 18.6 11.5 17.5 11.5H13.5Z" fill="#374151"/>
</svg>
