<svg width="16" height="16" viewBox="0 0 20 20" fill="none" xmlns="http://www.w3.org/2000/svg">
<path fill-rule="evenodd" clip-rule="evenodd" d="M6.5 0.5C7.6 0.5 8.5 1.4 8.5 2.5V6.5C8.5 7.6 7.6 8.5 6.5 8.5H2.5C1.4 8.5 0.5 7.6 0.5 6.5V2.5C0.5 1.4 1.4 0.5 2.5 0.5H6.5ZM2.5 2C2.2 2 2 2.2 2 2.5V6.5C2 6.8 2.2 7 2.5 7H6.5C6.8 7 7 6.8 7 6.5V2.5C7 2.2 6.8 2 6.5 2H2.5ZM6.5 11.5C7.6 11.5 8.5 12.4 8.5 13.5V17.5C8.5 18.6 7.6 19.5 6.5 19.5H2.5C1.4 19.5 0.5 18.6 0.5 17.5V13.5C0.5 12.4 1.4 11.5 2.5 11.5H6.5ZM2.5 13C2.2 13 2 13.2 2 13.5V17.5C2 17.8 2.2 18 2.5 18H6.5C6.8 18 7 17.8 7 17.5V13.5C7 13.2 6.8 13 6.5 13H2.5ZM11.5 2.5C11.5 1.4 12.4 0.5 13.5 0.5H17.5C18.6 0.5 19.5 1.4 19.5 2.5V6.5C19.5 7.6 18.6 8.5 17.5 8.5H13.5C12.4 8.5 11.5 7.6 11.5 6.5V2.5ZM13.5 2C13.2 2 13 2.2 13 2.5V6.5C13 6.8 13.2 7 13.5 7H17.5C17.8 7 18 6.8 18 6.5V2.5C18 2.2 17.8 2 17.5 2H13.5ZM17.5 11.5C18.6 11.5 19.5 12.4 19.5 13.5V17.5C19.5 18.6 18.6 19.5 17.5 19.5H13.5C12.4 19.5 11.5 18.6 11.5 17.5V13.5C11.5 12.4 12.4 11.5 13.5 11.5H17.5ZM13.5 13C13.2 13 13 13.2 13 13.5V17.5C13 17.8 13.2 18 13.5 18H17.5C17.8 18 18 17.8 18 17.5V13.5C18 13.2 17.8 13 17.5 13H13.5Z" fill="#374151"/>
</svg>
