<?xml version="1.0" encoding="utf-8"?>
<!-- Generator: Adobe Illustrator 19.0.0, SVG Export Plug-In . SVG Version: 6.00 Build 0)  -->
<svg version="1.1" id="Layer_1" xmlns="http://www.w3.org/2000/svg" xmlns:xlink="http://www.w3.org/1999/xlink" x="0px" y="0px"
	 viewBox="-289 412.9 16 16" style="enable-background:new -289 412.9 16 16;" xml:space="preserve">
<style type="text/css">
	.st0{fill:#787878;}
	.st1{fill:#EAB765;}
</style>
<g id="icon">
	<g>
		<path class="st0" d="M-288,421.5v7c0,0.2,0.2,0.4,0.4,0.4h13.1c0.2,0,0.4-0.2,0.4-0.4v-7H-288z"/>
		<path class="st0" d="M-273.3,417.9h-15.4c-0.1,0-0.3,0.2-0.3,0.3v2.5c0,0.1,0.1,0.2,0.3,0.2h15.4c0.1,0,0.3-0.1,0.3-0.2v-2.5
			C-273,418.1-273.1,417.9-273.3,417.9z"/>
	</g>
	<path class="st1" d="M-276.2,413.8c-0.8-0.9-2.1-1.2-3.1-0.4c-0.6,0.5-1.4,2-1.8,3.2c-0.4-1.2-1.2-2.7-1.8-3.2
		c-1-0.8-2.3-0.5-3.1,0.4s-0.8,2.2,0.3,3c0.6,0.5,2.2,0.8,3.4,1.1h-0.8v11l4,0v-11h-0.8c1.2-0.3,2.7-0.6,3.4-1.1
		C-275.4,416-275.4,414.7-276.2,413.8z M-282.4,417.2c-1-0.7-1.7-1.1-2-1.5c-0.5-0.5-0.7-1-0.4-1.2c0.3-0.2,0.9-0.2,1.4,0.3
		c0.3,0.3,0.9,1.5,1.3,2.1C-281.9,417.3-282,417.6-282.4,417.2z M-277.7,415.7c-0.3,0.3-0.9,0.8-2,1.5c-0.5,0.3-0.5,0.1-0.3-0.2
		c0.4-0.7,1-1.8,1.3-2.1c0.5-0.5,1.1-0.6,1.4-0.3C-277,414.7-277.2,415.2-277.7,415.7z"/>
</g>
</svg>
