<?xml version="1.0" encoding="UTF-8"?>
<!DOCTYPE svg PUBLIC "-//W3C//DTD SVG 1.1//EN" "http://www.w3.org/Graphics/SVG/1.1/DTD/svg11.dtd">
<svg version="1.1" id="Layer_1" xmlns="http://www.w3.org/2000/svg" xmlns:xlink="http://www.w3.org/1999/xlink" x="0px" y="0px" width="16px" height="16px" viewBox="0 0 16 16" enable-background="new 0 0 16 16" xml:space="preserve">
  <g id="icon">
    <g>
      <path d="M1,8.6v6.9834c0,0.2146,0.224,0.4166,0.4441,0.4166h13.1242c0.2201,0,0.4317,-0.202,0.4317,-0.4166V8.6H1z" fill-rule="evenodd" fill="#CD4C32"/>
      <path d="M15.7302,5H0.2822C0.1338,5,0,5.1712,0,5.316v2.4642C0,7.9248,0.1338,8,0.2822,8h15.448c0.1484,0,0.2698,-0.0752,0.2698,-0.2199V5.316C16,5.1712,15.8786,5,15.7302,5z" fill-rule="evenodd" fill="#CD4C32"/>
    </g>
    <path d="M12.8347,0.9081C12.0561,-0.0385,10.7779,-0.3,9.7572,0.498c-0.62,0.4847,-1.384,1.9598,-1.7851,3.1689C7.571,2.4578,6.807,0.9827,6.187,0.498C5.1663,-0.3,3.8881,-0.0385,3.1095,0.9081s-0.7625,2.2049,0.2582,3.0029C4.0102,4.4134,5.5771,4.7,6.7539,5H6v11.0062L10,16V5h-0.8097c1.1767,-0.3,2.7437,-0.5866,3.3862,-1.0889C13.5972,3.1131,13.6132,1.8548,12.8347,0.9081zM6.5521,4.3506c-1.0448,-0.6948,-1.6553,-1.1474,-1.9956,-1.4507c-0.5227,-0.466,-0.7124,-0.9843,-0.407,-1.2258c0.3054,-0.2415,0.8559,-0.1669,1.3773,0.3177c0.3209,0.2982,0.883,1.4673,1.326,2.1117C7.0824,4.4373,7.0447,4.6782,6.5521,4.3506zM11.2935,2.8357c-0.3336,0.3104,-0.9341,0.7755,-1.9634,1.4919c-0.4853,0.3377,-0.5282,0.0977,-0.3061,-0.2408c0.4289,-0.6535,0.9652,-1.834,1.2795,-2.1389c0.5107,-0.4953,1.0595,-0.5814,1.3701,-0.3463C11.9842,1.8368,11.8059,2.359,11.2935,2.8357z" fill="#EAB765"/>
  </g>
</svg>
