<?xml version="1.0" encoding="UTF-8"?>
<!DOCTYPE svg PUBLIC "-//W3C//DTD SVG 1.1//EN" "http://www.w3.org/Graphics/SVG/1.1/DTD/svg11.dtd">
<svg version="1.1" id="Layer_1" xmlns="http://www.w3.org/2000/svg" xmlns:xlink="http://www.w3.org/1999/xlink" x="0px" y="0px" width="16px" height="16px" viewBox="0 0 16 16" enable-background="new 0 0 16 16" xml:space="preserve">
  <g id="icon">
    <path d="M11.419,8.116c0.783,-0.03,1.538,-0.14,2.19,-0.607c0.136,-0.097,0.137,-0.301,-0.001,-0.396c-0.444,-0.307,-0.599,-0.794,-0.683,-1.301c-0.089,-0.539,-0.117,-1.092,-0.125,-1.64c-0.012,-0.789,-0.051,-1.567,-0.305,-2.325C12.027,0.449,10.688,-0.054,9.633,0.024c-0.368,0.027,-0.702,0.174,-0.994,0.411c-0.073,0.059,-0.178,0.115,-0.267,0.112c-0.885,-0.028,-1.414,0.495,-1.697,1.188c-0.066,0.161,-0.119,0.324,-0.162,0.49c2.617,0.078,3.89,1.387,3.89,3.996c0,1.058,-0.358,2.618,-1.131,3.887c0.168,0.059,0.327,0.116,0.479,0.169c2.082,0.734,3.086,1.089,3.562,2.548c1.04,-0.007,2.687,-0.071,2.687,-0.614C16,8.47,12.05,9.895,11.419,8.116z" fill="#A7A9AC"/>
    <path d="M12.493,13.655c-0.315,-1.613,-0.874,-1.64,-3.934,-2.738c-0.447,-0.17,-0.573,-0.416,-0.539,-0.766c0.863,-1.048,1.383,-2.744,1.383,-3.929c0,-1.836,-0.617,-2.998,-3.142,-2.998c-0.01,0,0.003,0,0,0c-2.526,0,-3.091,1.163,-3.091,2.998c0,1.185,0.518,2.878,1.381,3.926c0.033,0.35,-0.094,0.597,-0.54,0.767c-3.06,1.098,-3.62,1.125,-3.934,2.738c-0.095,0.648,-0.11,0.92,0.141,1.639c0.283,0.809,4.29,0.703,6.044,0.703c0.007,0,-0.012,0,0,0c1.754,0,5.807,0.106,6.091,-0.702C12.603,14.575,12.588,14.303,12.493,13.655z" fill-rule="evenodd" fill="#3E79B4"/>
  </g>
</svg>
