<?xml version="1.0" encoding="UTF-8"?>
<!DOCTYPE svg PUBLIC "-//W3C//DTD SVG 1.1//EN" "http://www.w3.org/Graphics/SVG/1.1/DTD/svg11.dtd">
<svg version="1.1" id="Layer_1" xmlns="http://www.w3.org/2000/svg" xmlns:xlink="http://www.w3.org/1999/xlink" x="0px" y="0px" width="16px" height="16px" viewBox="0 0 16 16" enable-background="new 0 0 16 16" xml:space="preserve">
  <g id="main">
    <g id="icon">
      <path d="M9.632,2.522L9.833,3.153L9.957,3.814L10,4.5L9.971,5.062L9.888,5.607L9.752,6.134L9.567,6.639L9.335,7.12L9.059,7.573L8.743,7.996L8.387,8.387L7.996,8.743L7.573,9.059L7.12,9.335L6.639,9.567L6.134,9.752L5.607,9.888L5.062,9.971L4.5,10L3.814,9.957L3.153,9.833L2.522,9.632L1.927,9.359L1.5,9.099L1.5,11.82L1.534,12.16L1.632,12.48L1.787,12.76L1.992,13.01L2.24,13.21L2.525,13.37L2.839,13.47L3.175,13.5L13.82,13.5L14.16,13.47L14.48,13.37L14.76,13.21L15.01,13.01L15.21,12.76L15.37,12.48L15.47,12.16L15.5,11.82L15.5,4.175L15.47,3.839L15.37,3.525L15.21,3.24L15.01,2.992L14.76,2.787L14.48,2.632L14.16,2.534L13.82,2.5L9.622,2.5zz" fill="#FFFFFF"/>
      <path d="M9.632,2.522L9.784,3L13.8,3L14.06,3.027L14.28,3.095L14.48,3.203L14.65,3.347L14.8,3.522L14.9,3.72L14.97,3.94L15,4.201L15,11.8L14.97,12.06L14.9,12.28L14.8,12.48L14.65,12.65L14.48,12.8L14.28,12.9L14.06,12.97L13.8,13L3.201,13L2.94,12.97L2.72,12.9L2.522,12.8L2.347,12.65L2.203,12.48L2.095,12.28L2.027,12.06L2,11.8L2,9.393L1.927,9.359L1.371,9.02L1,8.728L1,11.82L1,11.85L1.003,11.88L1.037,12.21L1.042,12.26L1.057,12.31L1.155,12.62L1.17,12.67L1.193,12.71L1.348,13L1.371,13.04L1.402,13.08L1.607,13.33L1.637,13.36L1.674,13.39L1.922,13.6L1.959,13.63L2.001,13.65L2.286,13.81L2.329,13.83L2.376,13.85L2.69,13.94L2.738,13.96L2.788,13.96L3.124,14L3.15,14L3.175,14L13.82,14L13.85,14L13.88,14L14.21,13.96L14.26,13.96L14.31,13.94L14.62,13.85L14.67,13.83L14.71,13.81L15,13.65L15.04,13.63L15.08,13.6L15.33,13.39L15.36,13.36L15.39,13.33L15.6,13.08L15.63,13.04L15.65,13L15.81,12.71L15.83,12.67L15.85,12.62L15.94,12.31L15.96,12.26L15.96,12.21L16,11.88L16,11.85L16,11.82L16,4.175L16,4.15L16,4.124L15.96,3.788L15.96,3.738L15.94,3.69L15.85,3.376L15.83,3.329L15.81,3.286L15.65,3.001L15.63,2.959L15.6,2.922L15.39,2.674L15.36,2.637L15.33,2.607L15.08,2.402L15.04,2.371L15,2.348L14.71,2.193L14.67,2.17L14.62,2.155L14.31,2.057L14.26,2.042L14.21,2.037L13.88,2.003L13.85,2L13.82,2L9.393,2zz" fill="#797979"/>
      <path d="M11.18,6.113L11.01,6.402L11.06,6.735L11.31,6.962L11.5,7L13.6,7L13.92,6.887L14.09,6.598L14.04,6.265L13.79,6.038L13.6,6L11.5,6zz" fill="#B4B4B5"/>
      <path d="M11.18,8.113L11.01,8.402L11.06,8.735L11.31,8.962L11.5,9L13.6,9L13.92,8.887L14.09,8.598L14.04,8.265L13.79,8.038L13.6,8L11.5,8zz" fill="#B4B4B5"/>
      <path d="M11.18,10.11L11.01,10.4L11.06,10.73L11.31,10.96L11.5,11L13.6,11L13.92,10.89L14.09,10.6L14.04,10.27L13.79,10.04L13.6,10L11.5,10zz" fill="#B4B4B5"/>
      <path d="M7.996,8.743L7.573,9.059L7.558,9.068L7.521,9.142L7.155,9.663L6.809,10.02L6.549,10.15L6.29,10.02L6.056,9.772L5.607,9.888L5.062,9.971L4.5,10L3.814,9.957L3.323,9.865L3.197,10.79L3.212,10.94L3.302,11.08L3.662,11.29L4.194,11.45L4.815,11.55L5.995,11.65L6.535,11.67L7.082,11.65L8.275,11.55L8.904,11.45L9.442,11.29L9.807,11.08L9.897,10.94L9.913,10.79L9.762,9.845L9.657,9.531L9.5,9.288L9.265,9.09L8.927,8.912L8.132,8.619zz" fill-rule="evenodd" fill="#3E79B4"/>
    </g>
    <g id="overlay">
      <path d="M7.682,1.318c-1.7574,-1.7574,-4.6066,-1.7574,-6.364,0c-1.7574,1.7574,-1.7574,4.6066,0,6.364c1.7574,1.7574,4.6066,1.7574,6.364,0C9.4393,5.9246,9.4393,3.0754,7.682,1.318zM7,5.5L5,3.5v4H4V3.5L2,5.5V3.9l2.5,-2.5l2.5,2.5V5.5z" fill-rule="evenodd" fill="#8C53A1"/>
    </g>
  </g>
</svg>
