<?xml version="1.0" encoding="UTF-8"?>
<!DOCTYPE svg PUBLIC "-//W3C//DTD SVG 1.1//EN" "http://www.w3.org/Graphics/SVG/1.1/DTD/svg11.dtd">
<svg version="1.1" id="Layer_1" xmlns="http://www.w3.org/2000/svg" xmlns:xlink="http://www.w3.org/1999/xlink" x="0px" y="0px" width="16px" height="16px" viewBox="0 0 16 16" enable-background="new 0 0 16 16" xml:space="preserve">
  <g id="main">
    <clipPath id="clip_mask">
      <path d="M6,11.5c0,-3.0327,2.4673,-5.5,5.5,-5.5c1.8588,0,3.5039,0.9278,4.5,2.3436V0H0v16h8.3436C6.9278,15.0039,6,13.3588,6,11.5z"/>
    </clipPath>
    <g id="icon" clip-path="url(#clip_mask)">
      <path d="M14.934,12.26c-0.376,-1.896,-1.045,-1.927,-4.702,-3.218c-0.534,-0.2,-0.685,-0.489,-0.645,-0.9c1.032,-1.232,1.653,-3.225,1.653,-4.618C11.241,1.367,10.504,0,7.485,0c-0.012,0,0.004,0,0,0C4.467,0,3.79,1.367,3.79,3.524c0,1.393,0.619,3.382,1.651,4.614c0.04,0.411,-0.112,0.702,-0.646,0.902c-3.657,1.29,-4.326,1.323,-4.702,3.219c-0.113,0.762,-0.132,1.081,0.169,1.926c0.339,0.95,5.127,0.826,7.223,0.826c0.008,0,-0.014,0,0,0c2.096,0,6.941,0.125,7.28,-0.826C15.066,13.341,15.047,13.022,14.934,12.26z" fill-rule="evenodd" fill="#3E79B4"/>
    </g>
    <g id="overlay">
      <path d="M11.5,7c-2.4853,0,-4.5,2.0147,-4.5,4.5c0,2.4853,2.0147,4.5,4.5,4.5s4.5,-2.0147,4.5,-4.5C16,9.0147,13.9853,7,11.5,7zM14,12h-2v2h-1v-2H9v-1h2V9h1v2h2V12z" fill-rule="evenodd" fill="#4EA17E"/>
      <polygon points="14,11 12,11 12,9 11,9 11,11 9,11 9,12 11,12 11,14 12,14 12,12 14,12" fill-rule="evenodd" fill="#FFFFFF" stroke-linejoin="miter"/>
    </g>
  </g>
</svg>
