<?xml version="1.0" encoding="UTF-8"?>
<!DOCTYPE svg PUBLIC "-//W3C//DTD SVG 1.1//EN" "http://www.w3.org/Graphics/SVG/1.1/DTD/svg11.dtd">
<svg version="1.1" id="Layer_1" xmlns="http://www.w3.org/2000/svg" xmlns:xlink="http://www.w3.org/1999/xlink" x="0px" y="0px" width="16px" height="16px" viewBox="0 0 16 16" enable-background="new 0 0 16 16" xml:space="preserve">
  <g id="icon">
    <path d="M13.017,0H1.983C1.442,0,1,0.442,1,0.983v14.033c0,0.541,0.442,0.983,0.983,0.983h11.033c0.541,0,0.983,-0.442,0.983,-0.983V0.983C14,0.442,13.558,0,13.017,0zM8.058,3.1c1.619,0,1.966,0.756,1.966,1.957c0,1.201,-0.781,3.192,-1.975,3.192S6.05,6.258,6.05,5.057C6.05,3.856,6.421,3.1,8.058,3.1zM8.014,11.9c0,0,-4.351,-0.006,-4.183,-1.137c0.274,-2.074,0.053,-2.036,2.406,-2.864c0.134,-0.064,0.219,-0.1,0.232,-0.105c0.405,1.175,1.237,2.145,1.562,2.145s1.157,-0.969,1.62,-2.115c2.353,0.828,2.321,0.866,2.595,2.94C12.415,11.894,8.014,11.9,8.014,11.9z" fill="#3E79B4"/>
    <path d="M1,7v2H0l0,-2H1zM0,3l0,2h1V3H0zM0,11l0,2h1v-2H0z" fill="#797979"/>
    <path d="M2,7v2H1V7H2zM1,3v2h1V3H1zM1,11v2h1v-2H1z" fill="#F1F2F2"/>
    <path d="M3,7v2H2V7H3zM2,3v2h1V3H2zM2,11v2h1v-2H2z" fill="#B4B4B5"/>
    <rect x="14" y="1" width="1" height="3" fill="#EAB765"/>
    <rect x="14" y="5" width="1" height="3" fill="#4EA17E"/>
    <rect x="14" y="9" width="1" height="3" fill="#CD4C32"/>
    <path d="M8.058,3.1C6.421,3.1,6.05,3.856,6.05,5.057c0,1.201,0.805,3.192,1.999,3.192c1.194,0,1.975,-1.991,1.975,-3.192C10.024,3.856,9.677,3.1,8.058,3.1zM8.014,11.9c0,0,-4.351,-0.006,-4.183,-1.137c0.274,-2.074,0.053,-2.036,2.406,-2.864c0.134,-0.064,0.219,-0.1,0.232,-0.105c0.405,1.175,1.237,2.145,1.562,2.145c0.325,0,1.157,-0.969,1.62,-2.115c2.353,0.828,2.321,0.866,2.595,2.94C12.415,11.894,8.014,11.9,8.014,11.9z" fill-rule="evenodd" fill="#FFFFFF"/>
  </g>
</svg>
