<?xml version="1.0" encoding="UTF-8"?>
<!DOCTYPE svg PUBLIC "-//W3C//DTD SVG 1.1//EN" "http://www.w3.org/Graphics/SVG/1.1/DTD/svg11.dtd">
<svg version="1.1" id="Layer_1" xmlns="http://www.w3.org/2000/svg" xmlns:xlink="http://www.w3.org/1999/xlink" x="0px" y="0px" width="32px" height="32px" viewBox="0 0 32 32" enable-background="new 0 0 32 32" xml:space="preserve">
  <g id="icon">
    <path d="M26.7,1H5.3c-0.718,0,-1.3,0.582,-1.3,1.3v27.4c0,0.718,0.582,1.3,1.3,1.3h21.4c0.718,0,1.3,-0.582,1.3,-1.3V2.3C28,1.582,27.418,1,26.7,1zM5.95,29H5v-2h0.95V29zM5.95,25H5v-2h0.95V25zM5.95,21H5v-2h0.95V21zM5.95,17H5v-2h0.95V17zM5.95,13H5v-2h0.95V13zM5.95,9H5V7h0.95V9zM5.95,5H5V3h0.95V5zM24.738,24.065c-0.361,1.076,-5.526,0.935,-7.761,0.935s-7.34,0.141,-7.701,-0.936c-0.321,-0.956,-0.301,-1.318,-0.18,-2.181c0.401,-2.147,1.115,-2.184,5.014,-3.645c0.569,-0.227,0.731,-0.556,0.689,-1.022c-1.1,-1.395,-1.76,-3.648,-1.76,-5.226c0,-2.443,0.721,-3.991,3.939,-3.991s4.004,1.548,4.004,3.991c0,1.578,-0.663,3.835,-1.762,5.23c-0.043,0.466,0.118,0.792,0.687,1.019c3.899,1.461,4.612,1.497,5.013,3.644C25.04,22.747,25.059,23.109,24.738,24.065z" fill="#3E79B4"/>
    <path d="M4,19v2H2v-2H4zM2,15v2h2v-2H2zM2,11v2h2v-2H2zM2,23v2h2v-2H2zM2,27v2h2v-2H2zM4,7v2H2V7H4zM4,3v2H2V3H4z" fill="#797979"/>
    <path d="M5,19v2H4v-2H5zM4,15v2h1v-2H4zM4,11v2h1v-2H4zM4,23v2h1v-2H4zM4,27v2h1v-2H4zM5,7v2H4V7H5zM5,3v2H4V3H5z" fill="#F1F2F2"/>
    <path d="M7,19v2H5v-2H7zM5,15v2h2v-2H5zM5,11v2h2v-2H5zM5,23v2h2v-2H5zM5,27v2h2v-2H5zM7,7v2H5V7H7zM7,3v2H5V3H7z" fill="#B4B4B5"/>
    <rect x="28" y="3" width="2" height="5" fill="#EAB765"/>
    <rect x="28" y="10" width="2" height="5" fill="#4EA17E"/>
    <rect x="28" y="17" width="2" height="5" fill="#CD4C32"/>
    <path d="M24.919,21.884c-0.401,-2.147,-1.114,-2.183,-5.013,-3.644c-0.569,-0.227,-0.73,-0.553,-0.687,-1.019c1.1,-1.395,1.762,-3.652,1.762,-5.23c0,-2.443,-0.786,-3.991,-4.004,-3.991c-0.013,0,0.004,0,0,0c-3.218,0,-3.939,1.548,-3.939,3.991c0,1.578,0.66,3.83,1.76,5.226c0.043,0.466,-0.119,0.795,-0.689,1.022C10.21,19.7,9.496,19.736,9.096,21.883c-0.121,0.863,-0.141,1.225,0.18,2.181c0.361,1.076,5.467,0.936,7.701,0.936c0.009,0,-0.015,0,0,0c2.235,0,7.4,0.141,7.761,-0.935C25.059,23.109,25.04,22.747,24.919,21.884z" fill-rule="evenodd" fill="#FFFFFF"/>
  </g>
</svg>
