<?xml version="1.0" encoding="UTF-8"?>
<!DOCTYPE svg PUBLIC "-//W3C//DTD SVG 1.1//EN" "http://www.w3.org/Graphics/SVG/1.1/DTD/svg11.dtd">
<svg version="1.1" id="Layer_1" xmlns="http://www.w3.org/2000/svg" xmlns:xlink="http://www.w3.org/1999/xlink" x="0px" y="0px" width="16px" height="16px" viewBox="0 0 16 16" enable-background="new 0 0 16 16" xml:space="preserve">
  <g id="icon">
    <path d="M14.6917,14H14V0.3083C14,0.138,13.862,0,13.6917,0H2.3083C2.138,0,2,0.138,2,0.3083V14h-0.6917C1.138,14,1,14.138,1,14.3083v1.3833c0,0.1703,0.138,0.3083,0.3083,0.3083h1h11.3833h1c0.1703,0,0.3083,-0.138,0.3083,-0.3083v-1.3833C15,14.138,14.862,14,14.6917,14zM7,1h2v2H7V1zM7,4h2v2H7V4zM7,7h2v2H7V7zM7,10h2v2H7V10zM4,1h2v2H4V1zM4,4h2v2H4V4zM4,7h2v2H4V7zM4,10h2v2H4V10zM10,15H6v-2h4V15zM12,12h-2v-2h2V12zM12,9h-2V7h2V9zM12,6h-2V4h2V6zM12,3h-2V1h2V3z" fill="#B4B4B4"/>
  </g>
</svg>
