<?xml version="1.0" encoding="UTF-8"?>
<!DOCTYPE svg PUBLIC "-//W3C//DTD SVG 1.1//EN" "http://www.w3.org/Graphics/SVG/1.1/DTD/svg11.dtd">
<svg version="1.1" id="Layer_1" xmlns="http://www.w3.org/2000/svg" xmlns:xlink="http://www.w3.org/1999/xlink" x="0px" y="0px" width="16px" height="16px" viewBox="0 0 16 16" enable-background="new 0 0 16 16" xml:space="preserve">
  <g id="icon">
    <path d="M14.6917,14H14V0.3083C14,0.138,13.862,0,13.6917,0H2.3083C2.138,0,2,0.138,2,0.3083V14h-0.6917C1.138,14,1,14.138,1,14.3083v1.3833c0,0.1703,0.138,0.3083,0.3083,0.3083h1h11.3833h1c0.1703,0,0.3083,-0.138,0.3083,-0.3083v-1.3833C15,14.138,14.862,14,14.6917,14zM7,1h2v2H7V1zM7,4h2v2H7V4zM7,7h2v2H7V7zM7,10h2v2H7V10zM4,1h2v2H4V1zM4,4h2v2H4V4zM4,7h2v2H4V7zM4,10h2v2H4V10zM10,15H6v-2h4V15zM12,12h-2v-2h2V12zM12,9h-2V7h2V9zM12,6h-2V4h2V6zM12,3h-2V1h2V3z" fill="#3E79B4"/>
    <path d="M6,3H4V1h2V3zM9,1H7v2h2V1zM12,1h-2v2h2V1zM6,6H4V4h2V6zM9,4H7v2h2V4zM12,4h-2v2h2V4zM6,9H4V7h2V9zM9,7H7v2h2V7zM12,7h-2v2h2V7zM6,12H4v-2h2V12zM9,10H7v2h2V10zM10,13H6v2h4V13zM12,10h-2v2h2V10z" fill="#FFFFFF"/>
  </g>
</svg>
